<?xml version="1.0" encoding="UTF-8"?>
<svg xmlns="http://www.w3.org/2000/svg" xmlns:xlink="http://www.w3.org/1999/xlink" width="160px" height="47px" viewBox="0 0 160 47" version="1.1">
  <title>Artboard</title>
  <defs>
    <polygon id="path-1" points="0.804591233 0.480429157 34.7804831 0.480429157 34.7804831 40.5421321 0.804591233 40.5421321"></polygon>
    <path d="M5.5764,0.311917241 C10.50145,0.311917241 14.2933083,2.07357517 14.2933083,8.10303724 C14.2933083,14.132491 10.9721667,15.8681793 6.07325833,15.7166897 L6.07325833,23.187509 L0.433416667,23.187509 L0.433416667,0.311917241 L5.5764,0.311917241 Z M6.491675,5.22897931 L6.055825,5.25927724 L6.055825,10.5355945 C7.60743333,10.6264966 8.57501667,9.66991448 8.57501667,7.99050207 C8.59245,6.53183172 7.8733,5.22897931 6.491675,5.22897931 Z" id="path-3"></path>
    <polygon id="path-5" points="5.92477692 0.111217857 5.92477692 16.7008679 9.8313 16.7008679 9.8313 21.8293979 0.694630769 21.8293979 0.694630769 0.111217857"></polygon>
    <path d="M5.95221667,0.117144828 L5.95221667,14.4830979 C5.91605833,15.1542538 5.96290833,15.8272966 6.09168333,16.4871476 C6.25730833,17.1234124 6.61905833,17.6082041 7.399225,17.6082041 C8.05604167,17.642549 8.62745833,17.1658759 8.70675833,16.5174372 C8.82994167,15.8568993 8.87528333,15.1843531 8.84186667,14.5133876 L8.84186667,0.117144828 L14.4511667,0.117144828 L14.4511667,15.07176 C14.4511667,17.8332745 13.8976667,23.3866097 7.36870833,23.3866097 C0.934372585,23.3866097 0.303516189,17.9930743 0.286581963,15.1935596 L0.286216667,0.117144828 L5.95221667,0.117144828 Z" id="path-7"></path>
    <polygon id="path-9" points="0.113857143 0.111202143 4.95174357 0.111202143 4.95174357 21.8293979 0.113857143 21.8293979"></polygon>
    <path d="M9.15957778,0.111217857 L10.6565667,11.6586329 L10.6973222,11.6586329 C10.8518667,10.3066386 10.9820667,8.98340929 11.2180444,7.62731357 L12.4790556,0.111217857 L18.9633111,0.111217857 L20.8670778,21.8293979 L15.3794667,21.8293979 L14.8912556,8.17385643 L14.8383667,8.17385643 C14.6065889,9.76009571 14.4316667,11.34221 14.1672222,12.9284414 L12.6702333,21.8293979 L8.38265556,21.8293979 L6.55215556,8.17385643 L6.49918889,8.17385643 C6.47476667,9.78885286 6.49918889,11.370975 6.42195556,12.9859714 L5.98258889,21.8293979 L0.328222222,21.8293979 L2.60221111,0.111217857 L9.15957778,0.111217857 Z" id="path-11"></path>
    <polygon id="path-13" points="9.88861538 0.111217857 9.88861538 5.23563857 5.42292308 5.23563857 5.42292308 8.26015929 9.44615385 8.26015929 9.44615385 13.3886971 5.42292308 13.3886971 5.42292308 16.7008679 9.88861538 16.7008679 9.88861538 21.8293979 0.233076923 21.8293979 0.233076923 0.111217857"></polygon>
    <path d="M5.82497368,0.111217857 C10.4660526,0.111217857 13.8188684,1.60703714 13.8188684,7.33965571 C13.8188684,9.73132286 12.8774211,11.8599879 10.7551579,12.7846086 L14.7355263,21.8252964 L8.96723684,21.8293979 L6.00663158,12.7887179 L5.95302632,12.8462479 C5.97773684,13.9105921 6.03142105,14.97903 6.03142105,16.0433664 L6.03142105,21.8293979 L0.663631579,21.8293979 L0.663631579,0.111217857 L5.82497368,0.111217857 Z M6.03142105,4.77538286 L6.03142105,10.1176114 L6.36994737,10.1628136 C7.78626316,10.1628136 8.54605263,8.81081929 8.54605263,7.39718571 C8.54605263,5.49453143 7.49731579,4.68909571 6.03142105,4.77538286 Z" id="path-15"></path>
    <path d="M6.15489286,0.519928 C7.48856429,0.554048 8.79104286,0.938904 9.93551429,1.637088 L9.93551429,8.360968 C9.31087143,7.247992 8.03282857,5.984392 6.80821429,5.984392 C6.06272857,5.977152 5.44790714,6.577176 5.42331429,7.335864 C5.44987143,7.795632 5.63467143,8.231192 5.94526429,8.565992 C6.24525,8.891984 6.56802143,9.195424 6.91098571,9.473944 C7.93437857,10.20488 8.81862143,11.119368 9.52042143,12.172696 C10.2109857,13.328024 10.5471929,14.666872 10.4861429,16.017904 C10.4861429,20.122528 7.92597143,23.407056 4.22345,23.407056 C2.84491429,23.397976 1.48429286,23.088384 0.233121429,22.499096 L0.22495,15.574384 C0.95645,16.808696 2.23449286,18.038832 3.59055714,18.038832 C3.99040714,18.061584 4.38216429,17.918864 4.67696429,17.64308 C4.97184286,17.367296 5.1447,16.981872 5.15625,16.574392 C5.17801429,16.118416 5.0314,15.670664 4.74532143,15.319152 C4.48949286,14.99916 4.19068571,14.717448 3.8577,14.482328 C2.8523,13.676344 1.96522857,12.728112 1.22351429,11.666416 C0.497592857,10.51312 0.125557143,9.165664 0.1551,7.796112 C0.1551,5.214512 1.61802143,0.519928 6.15489286,0.519928 Z" id="path-17"></path>
    <path d="M34.4268511,0.100047885 L34.4268511,40.3109363 L0.312025875,40.3109363 L0.312025875,0.100047885 L34.4268511,0.100047885 Z M33.5198977,1.01140692 L1.2189808,1.01140692 L1.2189808,39.4037076 L33.5198977,39.4037076 L33.5198977,1.01140692 Z" id="path-19"></path>
    <polygon id="path-21" points="0.64272459 0.448232957 30.8953702 0.448232957 30.8953702 36.7509089 0.64272459 36.7509089"></polygon>
    <path d="M22.4475162,0.436764167 C26.2560081,0.6618525 29.2285459,3.79601944 29.2285459,7.58652083 C29.2285459,11.3770061 26.2560081,14.5111892 22.4475162,14.7362775 L22.4475162,14.7362775 L12.8805973,14.7362775 L12.8805973,22.2441519 L17.1212514,22.2441519 L17.1212514,28.2521383 L0.620842703,28.2521383 L0.620842703,22.2441519 L5.81989459,22.2441519 L5.81989459,7.55280833 L0.620842703,7.55280833 L0.620842703,0.436764167 L22.4475162,0.436764167 Z" id="path-23"></path>
    <path d="M5.898848,0.176846674 C9.01772,0.174736 11.5508,2.695624 11.5638334,5.81448 C11.576672,8.933328 9.064584,11.475152 5.9458,11.498912 C2.827016,11.522664 0.276488,9.019408 0.241799293,5.90072 C0.227992,2.759864 2.758032,0.19988 5.898848,0.176846674 Z" id="path-25"></path>
    <path d="M4.93998462,0.523392308 C7.37828462,0.539607692 9.34409231,2.52506154 9.3360937,4.9634 C9.328,7.40173846 7.34913077,9.37418462 4.91077692,9.37430769 C2.45486923,9.36100769 0.474123077,7.36046154 0.485176651,4.90453846 C0.509653846,2.46630769 2.50168462,0.507169231 4.93998462,0.523392308 Z" id="path-27"></path>
    <polygon id="path-29" points="0.237253333 0.222285643 1.945768 0.222285643 1.945768 10.6067414 0.237253333 10.6067414"></polygon>
    <path d="M11.0802917,0.222286429 C13.2159333,0.222286429 14.087625,0.70719 14.087625,2.50300286 L14.087625,2.68792071 L12.24835,3.098865 L12.24835,1.61948286 L3.17841667,1.61948286 L3.17841667,4.52071714 L11.254625,4.52071714 C13.5907667,4.52071714 14.2358167,5.10425379 14.2358167,6.98635929 L14.2358167,8.15753871 C14.2358167,10.0725193 13.5646167,10.6231801 11.254625,10.6231801 L3.76244167,10.6231801 C1.45245833,10.6231801 0.7551,10.0807386 0.7551,8.15753871 L0.7551,7.86577079 L2.74256667,7.483597 L2.74256667,9.15612264 L12.287575,9.15612264 L12.287575,6.03297829 L4.25059167,6.03297829 C1.9624,6.03297829 1.26504167,5.50697479 1.26504167,3.56733929 L1.26504167,2.68792071 C1.26504167,0.7524 1.9624,0.222286429 4.25059167,0.222286429 L11.0802917,0.222286429 Z" id="path-31"></path>
    <path d="M11.5096579,0.222286429 C13.6980789,0.222286429 14.3339211,0.768829286 14.3339211,2.68792071 L14.3339211,8.14932014 C14.3339211,10.0643015 13.6980789,10.6149607 11.5096579,10.6149607 L3.10699737,10.6149607 C0.939236842,10.6149607 0.257944737,10.0930673 0.257944737,8.14932014 L0.257944737,2.68792071 C0.257944737,0.731845714 0.939236842,0.222286429 3.10699737,0.222286429 L11.5096579,0.222286429 Z M12.3313421,1.61948286 L2.28118421,1.61948286 L2.28118421,9.15612264 L12.3313421,9.17256057 L12.3313421,1.61948286 Z" id="path-33"></path>
    <polygon id="path-35" points="2.55856 0.222286429 2.55856 9.15612264 11.88496 9.15612264 11.88496 10.6067414 0.50832 10.6067414 0.50832 0.222286429"></polygon>
    <path d="M8.7312,0.222286429 L15.2505143,10.6231801 L13.0947048,10.6231801 L11.596419,8.03014771 L3.66651429,8.03014771 L2.16822857,10.6067414 L0.235504762,10.6067414 L6.6432,0.222286429 L8.7312,0.222286429 Z M7.64335238,1.39346429 L4.48335238,6.735685 L10.7993905,6.735685 L7.64335238,1.39346429 Z" id="path-37"></path>
    <polygon id="path-39" points="14.5681667 0.222286429 14.5681667 1.61948286 8.67991667 1.61948286 8.67991667 10.6067414 6.54866667 10.6067414 6.54866667 1.61948286 0.682166667 1.61948286 0.682166667 0.222286429"></polygon>
    <polygon id="path-41" points="0.4568 0.222285643 3.019572 0.222285643 3.019572 10.6067414 0.4568 10.6067414"></polygon>
    <polygon id="path-43" points="11.6397 0.222286429 11.6397 1.61537357 2.449125 1.61537357 2.449125 4.51660786 8.06235 4.51660786 8.06235 5.88914936 2.449125 5.88914936 2.449125 9.17667064 11.729925 9.17667064 11.729925 10.6067414 0.52695 10.6067414 0.52695 0.222286429"></polygon>
  </defs>
  <g id="Artboard" stroke="none" stroke-width="1" fill="none" fill-rule="evenodd">
    <g id="Group-67" transform="translate(0.132075, 0.000000)">
      <g id="Group-3" transform="translate(0.867925, 0.000000)">
        <mask id="mask-2" fill="white">
          <use xlink:href="#path-1"></use>
        </mask>
        <g id="Clip-2"></g>
        <polygon id="Fill-1" fill="#FFFFFF" mask="url(#mask-2)" points="-4.26596279 45.5501921 39.8510326 45.5501921 39.8510326 -4.52762598 -4.26596279 -4.52762598"></polygon>
      </g>
      <g id="Group-6" transform="translate(42.867925, 1.000000)">
        <mask id="mask-4" fill="white">
          <use xlink:href="#path-3"></use>
        </mask>
        <g id="Clip-5"></g>
        <polygon id="Fill-4" fill="#1D1D1B" mask="url(#mask-4)" points="-4.75786667 28.3429821 19.4845917 28.3429821 19.4845917 -4.84356414 -4.75786667 -4.84356414"></polygon>
      </g>
      <g id="Group-9" transform="translate(57.867925, 1.000000)">
        <mask id="mask-6" fill="white">
          <use xlink:href="#path-5"></use>
        </mask>
        <g id="Clip-8"></g>
        <polygon id="Fill-7" fill="#1D1D1B" mask="url(#mask-6)" points="-4.09732308 26.7240364 14.6232538 26.7240364 14.6232538 -4.78342071 -4.09732308 -4.78342071"></polygon>
      </g>
      <g id="Group-12" transform="translate(70.867925, 1.000000)">
        <mask id="mask-8" fill="white">
          <use xlink:href="#path-7"></use>
        </mask>
        <g id="Clip-11"></g>
        <polygon id="Fill-10" fill="#1D1D1B" mask="url(#mask-8)" points="-4.90505833 28.542091 19.6424917 28.542091 19.6424917 -5.03833655 -4.90505833 -5.03833655"></polygon>
      </g>
      <g id="Group-15" transform="translate(87.867925, 1.000000)">
        <mask id="mask-10" fill="white">
          <use xlink:href="#path-9"></use>
        </mask>
        <g id="Clip-14"></g>
        <polygon id="Fill-13" fill="#1D1D1B" mask="url(#mask-10)" points="-4.33578571 26.7240364 9.40144286 26.7240364 9.40144286 -4.78342071 -4.33578571 -4.78342071"></polygon>
      </g>
      <g id="Group-18" transform="translate(94.867925, 1.000000)">
        <mask id="mask-12" fill="white">
          <use xlink:href="#path-11"></use>
        </mask>
        <g id="Clip-17"></g>
        <polygon id="Fill-16" fill="#1D1D1B" mask="url(#mask-12)" points="-4.51694444 26.7240364 25.71226 26.7240364 25.71226 -4.78342071 -4.51694444 -4.78342071"></polygon>
      </g>
      <g id="Group-21" transform="translate(117.867925, 1.000000)">
        <mask id="mask-14" fill="white">
          <use xlink:href="#path-13"></use>
        </mask>
        <g id="Clip-20"></g>
        <polygon id="Fill-19" fill="#1D1D1B" mask="url(#mask-14)" points="-4.55892308 26.7240364 14.6805769 26.7240364 14.6805769 -4.78342071 -4.55892308 -4.78342071"></polygon>
      </g>
      <g id="Group-24" transform="translate(130.867925, 1.000000)">
        <mask id="mask-16" fill="white">
          <use xlink:href="#path-15"></use>
        </mask>
        <g id="Clip-23"></g>
        <polygon id="Fill-22" fill="#1D1D1B" mask="url(#mask-16)" points="-4.25439474 26.7240364 19.6535605 26.7240364 19.6535605 -4.78342071 -4.25439474 -4.78342071"></polygon>
      </g>
      <g id="Group-27" transform="translate(146.867925, 0.000000)">
        <mask id="mask-18" fill="white">
          <use xlink:href="#path-17"></use>
        </mask>
        <g id="Clip-26"></g>
        <polygon id="Fill-25" fill="#1D1D1B" mask="url(#mask-18)" points="-4.74115714 28.390688 15.387845 28.390688 15.387845 -4.463696 -4.74115714 -4.463696"></polygon>
      </g>
      <g id="Group-30" transform="translate(0.867925, 0.000000)">
        <mask id="mask-20" fill="white">
          <use xlink:href="#path-19"></use>
        </mask>
        <g id="Clip-29"></g>
        <polygon id="Fill-28" fill="#1D1D1B" mask="url(#mask-20)" points="-4.64328852 45.2226878 39.3821694 45.2226878 39.3821694 -4.81170165 -4.64328852 -4.81170165"></polygon>
      </g>
      <g id="Group-33" transform="translate(2.867925, 3.000000)">
        <mask id="mask-22" fill="white">
          <use xlink:href="#path-21"></use>
        </mask>
        <g id="Clip-32"></g>
        <polygon id="Fill-31" fill="#1D1D1B" mask="url(#mask-22)" points="-4.30896026 41.6550133 35.8470646 41.6550133 35.8470646 -4.45587457 -4.30896026 -4.45587457"></polygon>
      </g>
      <g id="Group-36" transform="translate(3.867925, 2.000000)">
        <mask id="mask-24" fill="white">
          <use xlink:href="#path-23"></use>
        </mask>
        <g id="Clip-35"></g>
        <polygon id="Fill-34" fill="#FFFFFF" mask="url(#mask-24)" points="-4.43013405 33.2703757 34.2795227 33.2703757 34.2795227 -4.58147961 -4.43013405 -4.58147961"></polygon>
      </g>
      <g id="Group-39" transform="translate(17.867925, 4.000000)">
        <mask id="mask-26" fill="white">
          <use xlink:href="#path-25"></use>
        </mask>
        <g id="Clip-38"></g>
        <polygon id="Fill-37" fill="#1D1D1B" mask="url(#mask-26)" points="-4.741832 16.482704 16.547472 16.482704 16.547472 -4.806776 -4.741832 -4.806776"></polygon>
      </g>
      <g id="Group-42" transform="translate(18.867925, 5.000000)">
        <mask id="mask-28" fill="white">
          <use xlink:href="#path-27"></use>
        </mask>
        <g id="Clip-41"></g>
        <polygon id="Fill-40" fill="#FFFFFF" mask="url(#mask-28)" points="-4.30677692 14.1662615 14.1280385 14.1662615 14.1280385 -4.26866923 -4.30677692 -4.26866923"></polygon>
      </g>
      <g id="Group-45" transform="translate(44.867925, 29.000000)">
        <mask id="mask-30" fill="white">
          <use xlink:href="#path-29"></use>
        </mask>
        <g id="Clip-44"></g>
        <polygon id="Fill-43" fill="#1D1D1B" mask="url(#mask-30)" points="-3.91577333 15.5013791 6.09879333 15.5013791 6.09879333 -4.67235371 -3.91577333 -4.67235371"></polygon>
      </g>
      <g id="Group-48" transform="translate(51.867925, 29.000000)">
        <mask id="mask-32" fill="white">
          <use xlink:href="#path-31"></use>
        </mask>
        <g id="Clip-47"></g>
        <polygon id="Fill-46" fill="#1D1D1B" mask="url(#mask-32)" points="-4.436175 15.5178171 19.4271 15.5178171 19.4271 -4.67235293 -4.436175 -4.67235293"></polygon>
      </g>
      <g id="Group-51" transform="translate(71.867925, 29.000000)">
        <mask id="mask-34" fill="white">
          <use xlink:href="#path-33"></use>
        </mask>
        <g id="Clip-50"></g>
        <polygon id="Fill-49" fill="#1D1D1B" mask="url(#mask-34)" points="-4.66010526 15.5095985 19.2519789 15.5095985 19.2519789 -4.67235293 -4.66010526 -4.67235293"></polygon>
      </g>
      <g id="Group-54" transform="translate(90.867925, 29.000000)">
        <mask id="mask-36" fill="white">
          <use xlink:href="#path-35"></use>
        </mask>
        <g id="Clip-53"></g>
        <polygon id="Fill-52" fill="#1D1D1B" mask="url(#mask-36)" points="-4.47528 15.5013791 16.868584 15.5013791 16.868584 -4.67235371 -4.47528 -4.67235371"></polygon>
      </g>
      <g id="Group-57" transform="translate(105.867925, 29.000000)">
        <mask id="mask-38" fill="white">
          <use xlink:href="#path-37"></use>
        </mask>
        <g id="Clip-56"></g>
        <polygon id="Fill-55" fill="#1D1D1B" mask="url(#mask-38)" points="-4.51078095 15.5178171 19.9968076 15.5178171 19.9968076 -4.67235293 -4.51078095 -4.67235293"></polygon>
      </g>
      <g id="Group-60" transform="translate(118.867925, 29.000000)">
        <mask id="mask-40" fill="white">
          <use xlink:href="#path-39"></use>
        </mask>
        <g id="Clip-59"></g>
        <polygon id="Fill-58" fill="#1D1D1B" mask="url(#mask-40)" points="-4.50916667 15.5013791 19.7594583 15.5013791 19.7594583 -4.67235371 -4.50916667 -4.67235371"></polygon>
      </g>
      <g id="Group-63" transform="translate(134.867925, 29.000000)">
        <mask id="mask-42" fill="white">
          <use xlink:href="#path-41"></use>
        </mask>
        <g id="Clip-62"></g>
        <polygon id="Fill-61" fill="#1D1D1B" mask="url(#mask-42)" points="-5.7728 15.5013791 9.24898 15.5013791 9.24898 -4.67235371 -5.7728 -4.67235371"></polygon>
      </g>
      <g id="Group-66" transform="translate(144.867925, 29.000000)">
        <mask id="mask-44" fill="white">
          <use xlink:href="#path-43"></use>
        </mask>
        <g id="Clip-65"></g>
        <polygon id="Fill-64" fill="#1D1D1B" mask="url(#mask-44)" points="-4.145175 15.5013791 16.4021175 15.5013791 16.4021175 -4.67235371 -4.145175 -4.67235371"></polygon>
      </g>
    </g>
  </g>
</svg>
