<?xml version="1.0" encoding="UTF-8"?>
<!-- Generator: Adobe Illustrator 23.1.1, SVG Export Plug-In . SVG Version: 6.00 Build 0)  -->
<svg xmlns="http://www.w3.org/2000/svg" xmlns:xlink="http://www.w3.org/1999/xlink" preserveAspectRatio="xMidYMid slice" id="Layer_1" x="0px" y="0px" viewBox="0 0 187 77.5" style="enable-background:new 0 0 187 77.5;" width="760px" height="312px" xml:space="preserve">
<style type="text/css">
	.st0{clip-path:url(#SVGID_2_);fill:#000000;}
	.st1{clip-path:url(#SVGID_4_);fill:#000000;}
	.st2{clip-path:url(#SVGID_6_);fill:#000000;}
	.st3{clip-path:url(#SVGID_8_);fill:#000000;}
	.st4{clip-path:url(#SVGID_10_);fill:#000000;}
	.st5{clip-path:url(#SVGID_12_);fill:#000000;}
	.st6{clip-path:url(#SVGID_14_);fill:#000000;}
</style>
<title>logo-top-1-toys-white</title>
<desc>Created with Sketch.</desc>
<title>logo-top-1-toys-white</title>
<desc>Created with Sketch.</desc>
<g>
	<defs>
		<path id="SVGID_1_" d="M27.4,40.2c-8.8,0-11.9-6.1-11.9-11.9c0-5.8,3.1-11.9,11.9-11.9h11.1c0.2,0,0.4,0.1,0.4,0.3v2.9    c0,0.2-0.2,0.3-0.4,0.3h-9.3c-5.6,0-8.2,2.7-8.2,8.4c0,5.7,2.6,8.4,8.1,8.4h9.3c0.2,0,0.4,0.1,0.4,0.3v2.9c0,0.2-0.2,0.3-0.4,0.3    H27.4"></path>
	</defs>
	<use xlink:href="#SVGID_1_" style="overflow:visible;fill-rule:evenodd;clip-rule:evenodd;fill:#000000;"></use>
	<clipPath id="SVGID_2_">
		<use xlink:href="#SVGID_1_" style="overflow:visible;"></use>
	</clipPath>
	<rect x="8.8" y="9.7" class="st0" width="36.8" height="37.2"></rect>
</g>
<g>
	<defs>
		<path id="SVGID_3_" d="M96.6,36.8c1.4,0,3.1-0.1,4.6-1.2c1.9-1.3,2.8-3.7,2.8-7.2c0-3.5-0.9-5.9-2.8-7.2c-1.5-1-3.2-1.2-4.6-1.2    h-7.7v16.8H96.6z M84.1,40.2c-0.2,0-0.4-0.1-0.4-0.3V16.8c0-0.2,0.2-0.3,0.4-0.3h13.2c3.8,0,6.8,1,8.9,2.9c2.2,2,3.3,5.1,3.3,8.9    c0,3.9-1.1,6.9-3.3,8.9c-2.1,2-5.1,2.9-8.9,2.9H84.1z"></path>
	</defs>
	<use xlink:href="#SVGID_3_" style="overflow:visible;fill-rule:evenodd;clip-rule:evenodd;fill:#000000;"></use>
	<clipPath id="SVGID_4_">
		<use xlink:href="#SVGID_3_" style="overflow:visible;"></use>
	</clipPath>
	<rect x="77" y="9.7" class="st1" width="39.3" height="37.2"></rect>
</g>
<g>
	<defs>
		<path id="SVGID_5_" d="M160.8,40.2c-8.8,0-11.9-6.1-11.9-11.9c0-5.8,3.1-11.9,11.9-11.9h11.1c0.2,0,0.4,0.1,0.4,0.3v2.9    c0,0.2-0.2,0.3-0.4,0.3h-9.3c-5.6,0-8.2,2.7-8.2,8.4c0,5.7,2.6,8.4,8.1,8.4h9.3c0.2,0,0.4,0.1,0.4,0.3v2.9c0,0.2-0.2,0.3-0.4,0.3    H160.8"></path>
	</defs>
	<use xlink:href="#SVGID_5_" style="overflow:visible;fill-rule:evenodd;clip-rule:evenodd;fill:#000000;"></use>
	<clipPath id="SVGID_6_">
		<use xlink:href="#SVGID_5_" style="overflow:visible;"></use>
	</clipPath>
	<rect x="142.1" y="9.7" class="st2" width="36.8" height="37.2"></rect>
</g>
<g>
	<defs>
		<path id="SVGID_7_" d="M134.4,31.9h-10.6l5.3-10.8L134.4,31.9z M144,39.9l-11.6-23.2c-0.1-0.1-0.2-0.2-0.4-0.2h-5.9    c-0.2,0-0.3,0.1-0.4,0.2l-11.6,23.2c0,0.1,0,0.2,0,0.3c0.1,0.1,0.2,0.1,0.3,0.1h4.9c0.2,0,0.3-0.1,0.4-0.2l2.4-4.9H136l2.4,4.9    c0.1,0.1,0.2,0.2,0.4,0.2h4.9c0.1,0,0.2-0.1,0.3-0.1C144.1,40.1,144.1,40,144,39.9z"></path>
	</defs>
	<use xlink:href="#SVGID_7_" style="overflow:visible;fill-rule:evenodd;clip-rule:evenodd;fill:#000000;"></use>
	<clipPath id="SVGID_8_">
		<use xlink:href="#SVGID_7_" style="overflow:visible;"></use>
	</clipPath>
	<rect x="107.4" y="9.8" class="st3" width="43.3" height="37.2"></rect>
</g>
<g>
	<defs>
		<path id="SVGID_9_" d="M66.6,31.9H56l5.3-10.8L66.6,31.9z M76.2,39.9L64.6,16.7c-0.1-0.1-0.2-0.2-0.4-0.2h-5.9    c-0.2,0-0.3,0.1-0.4,0.2L46.3,39.9c0,0.1,0,0.2,0,0.3c0.1,0.1,0.2,0.1,0.3,0.1h4.9c0.2,0,0.3-0.1,0.4-0.2l2.4-4.9h13.9l2.4,4.9    c0.1,0.1,0.2,0.2,0.4,0.2h4.9c0.1,0,0.2-0.1,0.3-0.1C76.3,40.1,76.3,40,76.2,39.9z"></path>
	</defs>
	<use xlink:href="#SVGID_9_" style="overflow:visible;fill-rule:evenodd;clip-rule:evenodd;fill:#000000;"></use>
	<clipPath id="SVGID_10_">
		<use xlink:href="#SVGID_9_" style="overflow:visible;"></use>
	</clipPath>
	<rect x="39.6" y="9.8" class="st4" width="43.3" height="37.2"></rect>
</g>
<g>
	<defs>
		<path id="SVGID_11_" d="M183,17.7c0,0,0,17.2,0,20.3c0,3-0.5,4.7-2.5,6.8c-2.1,2.1-6.5,2.2-6.5,2.2l-2.8,0.2l-38.4,2.9    c0,0-35,2.8-37.5,2.9c-2.5,0.2-4.6,0-4.6,0l-24.3-2l-53.2-4c-5-0.4-6-1.1-7.8-3.1c-1.9-1.9-1.6-5.6-1.6-5.6L3.6,17.8    c0-3.9,2.3-6.1,3.3-6.7c1.9-1.3,7-1.7,7-1.7l35.4-2.8c0,0,41.6-3.1,42.9-3.2c1.3-0.1,2.4,0,2.4,0l43.2,3.1c0,0,32.6,2.6,35.6,2.9    c3,0.3,5.5,0.3,7.8,2.8C183.5,14.8,183,17.7,183,17.7z M183.6,10c-3-3.2-6.3-3.5-9.2-3.8l-0.8-0.1c-3-0.3-34.3-2.8-35.7-2.9    L94.8,0.1c0,0-1.4-0.1-3,0c-1.3,0.1-41.2,3-42.9,3.2L13.5,6.1c-1.4,0.1-6.3,0.5-8.8,2.3C3.6,9.1,0,12.1,0,18l0.2,20.4    c-0.1,1.2-0.1,5.4,2.6,8.2c2.6,2.7,4.4,3.7,10.1,4.1l53.2,4l24.2,2c0.1,0,1.3,0.1,3,0.1c0.7,0,1.4,0,2.2-0.1    c2.5-0.2,36.1-2.8,37.5-2.9l38.5-2.9l2.7-0.2c1.3,0,6-0.4,8.8-3.2c2.9-3,3.5-5.6,3.5-9.2c0-2.9,0-18.3,0-20.1    C186.5,16.8,186.6,13.2,183.6,10z"></path>
	</defs>
	<use xlink:href="#SVGID_11_" style="overflow:visible;fill-rule:evenodd;clip-rule:evenodd;fill:#000000;"></use>
	<clipPath id="SVGID_12_">
		<use xlink:href="#SVGID_11_" style="overflow:visible;"></use>
	</clipPath>
	<rect x="-6.7" y="-6.7" class="st5" width="199.9" height="70.1"></rect>
</g>
<g>
	<defs>
		<path id="SVGID_13_" d="M187,72.6h-7.7v0.2c0,0.4,0.1,2.2,1.6,2.9c0.9,0.5,1.9,0.4,2.2,0.4h3.9v1.3h-4.1c-3.1,0-5.8-1.5-5.8-5.4    c0-3.9,2.7-5.4,5.8-5.4h4.1V68h-3.5c-0.6,0-1.3,0-1.8,0.2c-1.8,0.5-2.3,1.8-2.3,3v0.2h7.6V72.6z M165.8,70.3    c0-1.3,0.6-2.2,1.6-2.8c1-0.6,2.2-0.8,3.7-0.8h4.1V68h-4.1c-1,0-1.9,0.1-2.4,0.6c-0.7,0.6-0.9,1.1-0.9,1.8v0.9h7.4v1.3h-7.4    l0.1,4.8h-2.1V70.3z M161.3,77.5h2V66.6h-2V77.5z M152,73.4c0,1.2,0.3,2.3,1.2,3c0.7,0.6,1.7,1.1,2.9,1.1h4v-1.3h-3.2    c-0.9,0-1.5-0.2-2.1-0.7c-0.6-0.5-0.7-1.1-0.7-1.8v-7h-2V73.4z M140.6,77.5h2V66.6h-2V77.5z M135.2,73.3l-2.4-5.1l-2.4,5.1H135.2z     M131.4,66.6h2.6l5.2,10.8h-2.2l-1.4-2.8h-6l-1.4,2.8h-2.2L131.4,66.6z M121,73.3l-2.4-5.1l-2.4,5.1H121z M117.3,66.6h2.6    l5.2,10.8H123l-1.4-2.8h-6l-1.4,2.8h-2.2L117.3,66.6z M106.6,68c1.1,0,2.3,0.3,2.3,1.8c0,1.5-1.2,1.8-2.3,1.8h-4.3V68H106.6z     M102.3,77.5v-4.6h3c1.7,0,2.7,0.7,3.1,1.8c0.1,0.5,0.2,1.3,0.3,1.7c0.1,0.5,0.1,0.6,0.2,1.1h2.1c-0.1-0.4-0.1-0.7-0.2-1.1    c-0.1-0.6-0.1-1.4-0.4-2.1c-0.4-0.9-1.1-1.4-1.9-1.7l-0.1,0c1.7-0.3,2.7-1.4,2.7-2.8c0-2.2-1.7-3.1-4.1-3.1h-6.7v10.8H102.3z     M94.4,72.6c1.5,0,1.9,1,1.9,1.8c0,0.8-0.4,1.8-1.9,1.8h-4.6v-3.5H94.4z M89.8,68H94c1.7,0,2.2,0.7,2.2,1.6c0,1-0.5,1.6-2.2,1.6    h-4.2V68z M94.1,77.5c2.7,0,4.4-0.9,4.4-3c0-1.5-1-2.1-2.1-2.5c1.2-0.5,1.8-1.2,1.8-2.5c0-1.6-1.3-2.8-3.8-2.8h-6.5v10.8H94.1z     M79.1,72.6h-7.7v0.2c0,0.4,0.1,2.2,1.6,2.9c0.9,0.5,1.9,0.4,2.2,0.4h3.9v1.3H75c-3.1,0-5.8-1.5-5.8-5.4c0-3.9,2.7-5.4,5.8-5.4    h4.1V68h-3.5c-0.6,0-1.3,0-1.8,0.2c-1.8,0.5-2.3,1.8-2.3,3v0.2h7.6V72.6z M56.8,77.5h2v-4.8h6.8v4.8h2V66.6h-2v4.6h-6.8v-4.6h-2    V77.5z M45.3,68h4v9.5h2V68h4v-1.3h-9.9V68z M36.5,72.6h-7.7v0.2c0,0.4,0.1,2.2,1.6,2.9c0.9,0.5,1.9,0.4,2.2,0.4h3.9v1.3h-4.1    c-3.1,0-5.8-1.5-5.8-5.4c0-3.9,2.7-5.4,5.8-5.4h4.1V68H33c-0.6,0-1.3,0-1.8,0.2c-1.8,0.5-2.3,1.8-2.3,3v0.2h7.6V72.6z M18.7,77.5    h2.5l5.4-10.8h-2.1l-4.5,9.2l-4.2-9.2h-2.3L18.7,77.5z M9.9,77.5h2V66.6h-2V77.5z M0.6,73.4c0,1.2,0.3,2.3,1.2,3    c0.7,0.6,1.7,1.1,2.9,1.1h4v-1.3H5.4c-0.9,0-1.5-0.2-2.1-0.7c-0.6-0.5-0.7-1.1-0.7-1.8v-7h-2V73.4z"></path>
	</defs>
	<use xlink:href="#SVGID_13_" style="overflow:visible;fill-rule:evenodd;clip-rule:evenodd;fill:#000000;"></use>
	<clipPath id="SVGID_14_">
		<use xlink:href="#SVGID_13_" style="overflow:visible;"></use>
	</clipPath>
	<rect x="-6.1" y="59.9" class="st6" width="199.8" height="24.2"></rect>
</g>
</svg>
