<?xml version="1.0" encoding="UTF-8"?>
<!-- Generator: Adobe Illustrator 23.1.1, SVG Export Plug-In . SVG Version: 6.00 Build 0)  -->
<svg xmlns="http://www.w3.org/2000/svg" xmlns:xlink="http://www.w3.org/1999/xlink" preserveAspectRatio="xMidYMid slice" id="Layer_1" x="0px" y="0px" viewBox="0 0 192 36" style="enable-background:new 0 0 192 36;" width="760px" height="142px" xml:space="preserve">
<title>logo-top-1-toys-white</title>
<desc>Created with Sketch.</desc>
<g id="Page-1">
	<g id="E-mail-signature" transform="translate(-320.000000, -71.000000)">
		<g id="logo-top-1-toys-white" transform="translate(320.000000, 71.000000)">
			<path id="Shape" d="M59.1,8.8H47.2V12h0.9c0.8,0,0.8,0.1,0.8,0.7v17.6c0,0.5-0.1,0.7-0.8,0.7h-0.9v3.2l0.9-0.1     c0.9-0.1,3.3-0.2,5.5-0.2c2.1,0,4.1,0.1,5.8,0.2l0.9,0.1V31h-0.9c-1.2,0-1.2-0.4-1.2-0.7v-5c1.4,0.9,3.9,1.1,5,1.1     c4.9,0,8.4-3.5,8.4-8.3C71.8,12.2,67.1,8.8,59.1,8.8z M60.1,22.2c-0.6,0-1.2,0-1.7,0.1v-7.8c3.4,0.1,4.1,2.4,4.1,4.4     C62.4,21,61.6,22.1,60.1,22.2z M96.3,29.1c0-9,0-8.5,0.4-27.9V0l-1.4,0.3C89.2,1.9,82.7,3,75.1,3.6l-0.8,0.1v3.5h0.9     c1.6,0,4.3,0.2,4.3,1.8v20.3c0,0.4,0,1.3-3.7,1.3h-0.9v3.6h0.9c3.4-0.1,7.3-0.3,11-0.3c4.1,0,8.3,0.1,12.3,0.3h0.9v-3.6h-0.9     C96.3,30.6,96.3,29.6,96.3,29.1z M170.6,8.4l-1,0.1c-1,0.1-2.2,0.2-3.5,0.2c-1.3,0-2.5-0.1-3.8-0.2l-1-0.1v3.2h0.9     c0.2,0,0.3,0,0.3,0s0,0.1,0,0.2c0,0.3-0.1,0.8-0.6,2.4c0,0-0.8,2.2-1.4,3.9l-1.5-4.2c-0.2-0.5-0.6-1.8-0.7-2.3c0.1,0,0.2,0,0.3,0     h0.9V8.4l-0.9,0.1c-1.6,0.1-3.4,0.2-5.3,0.2c-1.7,0-3.6-0.1-5.9-0.2l-0.9-0.1v3.2h0.9c0.7,0,0.7,0,1.2,1.2c0,0,4.8,11.9,5.5,13.4     v4.1c0,0.5-0.1,0.8-1,0.8h-0.9v3.2l0.9-0.1c1.7-0.1,3.4-0.2,5.5-0.2c2.1,0,3.9,0.1,5.7,0.2l0.9,0.1v-3.2h-0.9     c-0.8,0-0.9-0.2-0.9-0.8v-4.2l5.4-13.5c0.4-1,0.6-0.9,0.8-0.9l0.9,0.1V8.4H170.6z M182.6,17c-3.6-1.3-4.1-1.6-4.1-2     c0-0.7,0.2-1.4,2.8-1.4c1.6,0,5.3,0.4,5.7,3.9l0.1,0.8h3l-0.1-0.9l-0.1-0.8c-0.2-2.1-0.3-4.1-0.2-6.1V9.9l-0.6-0.2     c-2.6-1.1-4.7-1.7-8.4-1.7c-6.5,0-10.9,3.4-10.9,8.4c0,4.5,3,7.7,8.6,9.2c3.8,1.1,4.2,1.6,4.2,2.2c0,1.5-2.4,1.7-3.5,1.7     c-3.4,0-5.7-2-5.9-5.4l-0.1-0.8H170l0.1,0.9c0.1,2.3,0.2,4.9,0.2,7.3v0.4l0.3,0.3c3.1,2.5,7.2,2.8,8.8,2.8     c7.3,0,11.7-3.3,11.7-8.9C191.2,20.3,188.2,19,182.6,17z M28.5,8.6c-1.7,0.6-3.2,1.5-4.5,2.7c0-0.5,0-1-0.1-1.6V9.6V8.8h-23v0.9     c0,2.2-0.3,4.4-0.6,6.7l-0.2,1.4l-0.1,1h1h2L3.2,18c0.7-3,1-3.3,3.9-3.3h0.6V30c0,0.8-0.1,1-1.3,1H5.5v3.2h0.9     c1.9-0.1,3.9-0.2,5.8-0.2c2,0,4,0.1,6,0.2h0.9V31h-0.9c-1.3,0-1.4-0.4-1.4-1V14.8h0.7c1.7,0,2.6,0.2,3.1,1     c-1.5,3.3-1.5,7.1-0.2,10.7c2.9,7.8,11.3,10.1,17.7,7.7c3.4-1.3,6.1-3.7,7.6-7s1.6-7,0.3-10.5C43.7,9.6,35.7,6,28.5,8.6z      M36.8,27.4c-0.3,0.7-0.8,1.2-1.5,1.4c-1.2,0.5-2.9,0.4-4.6-4.1c-0.9-2.4-1.8-6.9-0.7-9.3c0.3-0.8,0.9-1.3,1.6-1.5     c2.4-0.9,3.8,2.2,4.3,3.6C36.9,20.1,38,24.9,36.8,27.4z M136.7,7.9c-3.5,0-6.8,1.3-9.2,3.5c0-0.6,0-1.2-0.1-1.8V9.5V8.7h-23.3     v0.9c0,2.2-0.3,4.4-0.6,6.8l-0.2,1.4l-0.1,1h1h2l0.2-0.7c0.7-3,1-3.3,4-3.3h0.6v15.4c0,0.8-0.1,1-1.3,1h-0.9v3.2h0.9     c1.9-0.1,3.9-0.2,5.9-0.2s4.1,0.1,6.1,0.2h0.9v-3.2h-0.9c-1.3,0-1.4-0.4-1.4-1V14.7h0.7c1.8,0,2.7,0.2,3.2,1.1     c-0.8,1.7-1.2,3.5-1.2,5.5c0,7.6,5.8,13.6,13.3,13.6c6.7,0,13.6-4.9,13.6-13.2C150.1,13.8,144.3,7.9,136.7,7.9z M137.5,28.8     c-3.3,0-4.4-6.9-4.4-10.3c0-1.4,0.3-4.7,2.7-4.7c3.3,0,4.5,6.7,4.5,9.7C140.2,28.2,138.7,28.8,137.5,28.8z"></path>
		</g>
	</g>
</g>
</svg>
