<?xml version="1.0" encoding="UTF-8"?>
<svg xmlns="http://www.w3.org/2000/svg" width="238" height="45" viewBox="0 0 238 45">
  <g fill="#000" fill-rule="nonzero">
    <path d="M156.068889 8.184c-.102222.13-.102222.312-.102222.676v4.654c0 .104-.025556.156-.076667.208-.025556.026-.076667.052-.127778.052-.076666.026-.178889.026-.306666.026h-18.144445c-3.603333 0-5.417778 0-6.542222 1.144-1.124445 1.144-1.124445 2.99-1.124445 6.656v7.8c0 3.666 0 5.512 1.124445 6.656 1.124444 1.144 2.938889 1.144 6.542222 1.144h25.044445V6l-5.673334 1.872c-.357778.104-.511111.182-.613333.312zm-1.175556 24.024c-.357777.052-.817777.052-1.482222.052h-14.822222c-1.201111 0-1.814445 0-2.172222-.39-.383334-.39-.383334-.988-.383334-2.21v-8.32c0-1.222 0-1.846.383334-2.21.383333-.39.971111-.39 2.172222-.39h17.377778v10.92c0 1.222 0 1.846-.383334 2.21-.153333.182-.383333.286-.69.338zm20.24 4.992c-3.603333 0-5.417777 0-6.542222-1.144-1.124444-1.144-1.124444-2.99-1.124444-6.656v-2.6c0-.702 0-1.248.025555-1.69.051111-.65.178889-1.092.485556-1.404.255555-.26.587778-.39 1.047778-.468.255555-.052.562222-.052.945555-.078h23.511111c.051111 0 .076667 0 .102222-.026.051112 0 .076667-.026.127778-.052.025556-.026.051111-.078.076667-.156v-2.314c0-.338-.025556-.624-.076667-.858-.025555-.156-.076666-.286-.127778-.39-.051111-.078-.102222-.156-.178888-.234-.383334-.39-.971112-.39-2.172223-.39h-23.766666V13.8h25.044444c3.603333 0 5.417778 0 6.542222 1.144 1.124445 1.144 1.124445 2.99 1.124445 6.656v15.6h-25.044445zm18.655556-9.36h-17.761111c-.843334 0-1.252222 0-1.558889.182-.076667.052-.127778.104-.204445.156l-.076666.078c-.025556.026-.051111.052-.051111.078-.025556.052-.076667.078-.102223.13-.178888.312-.178888.728-.178888 1.586 0 .598 0 .962.051111 1.248.025555.13.076666.234.127777.338.102223.182.255556.312.408889.442.306667.182.715556.182 1.558889.182h15.716667c.204444 0 .383333 0 .536667-.026.562222-.026.92-.104 1.15-.364.153333-.156.23-.338.281111-.572.076666-.39.076666-.91.076666-1.664V27.84h.025556zm17.888889 14.716c0 .078-.025556.13-.025556.182 0 .026-.025555.078-.051111.104-.102222.13-.281111.182-.613333.312L205.288889 45V13.8h25.044444c3.603334 0 5.417778 0 6.542223 1.144C238 16.088 238 17.934 238 21.6v7.8c0 3.666 0 5.512-1.124444 6.656-1.124445 1.144-2.938889 1.144-6.542223 1.144h-18.451111c-.051111 0-.102222.026-.127778.052-.051111.052-.051111.104-.076666.182v5.122zm1.047778-23.738c-.281112.052-.511112.156-.664445.312-.383333.39-.383333.988-.383333 2.21v10.92h17.377778c1.201111 0 1.814444 0 2.172222-.39.383333-.39.383333-.988.383333-2.21v-8.32c0-1.222 0-1.846-.383333-2.21-.383334-.39-.971111-.39-2.172222-.39h-14.822223c-.434444 0-.792222 0-1.098889.026-.153333 0-.281111.026-.408888.052zM116.866667 13.8c3.603333 0 5.417777 0 6.542222 1.144 1.124444 1.144 1.124444 2.99 1.124444 6.656v2.6c0 1.716 0 2.574-.536666 3.094-.536667.546-1.354445.546-3.041111.546H98.7222222c-.23 0-.3577778 0-.4344444.078-.0766667.078-.0766667.208-.0766667.442v1.3c0 1.222 0 1.846.3833333 2.21.3833334.39.9711112.39 2.1722226.39h23.766666v4.94H99.4888889c-3.6033333 0-5.4177778 0-6.5422222-1.144-1.1244445-1.144-1.1244445-2.99-1.1244445-6.656v-7.8c0-3.666 0-5.512 1.1244445-6.656 1.1244444-1.144 2.9388889-1.144 6.5422222-1.144h17.3777781zm-18.6555559 9.36h17.7611109c.843334 0 1.252222 0 1.558889-.182.178889-.104.306667-.26.408889-.442.051111-.104.102222-.208.127778-.338.051111-.286.051111-.676.051111-1.248 0-.364 0-.676-.025556-.91-.025555-.312-.076666-.52-.178889-.676-.102222-.182-.255555-.312-.408888-.442-.306667-.182-.715556-.182-1.558889-.182h-15.18c-1.2011114 0-1.8144448 0-2.1722226.39-.3833333.39-.3833333.988-.3833333 2.21v1.82zm-13.1355555-7.696C83.4144444 13.8 80.7566667 13.8 75.4666667 13.8H54v23.4h6.3888889V21.34c0-1.222 0-1.846.3833333-2.21.3833334-.39.9711111-.39 2.1722222-.39h12.2666667c2.4022222 0 3.6033333 0 4.37.754.7411111.754.7411111 1.976.7411111 4.446V37.2h6.3888889V25.24c0-5.382 0-8.086-1.6355555-9.776zM23.5326539 14.1215663c.9605358 0 1.466081 0 1.7188536-.3036896.2780499-.3036896.2022181-.7845315.0758318-1.7462152L23.835981 1.56906292C23.734872.83514639 23.6843174.4555344 23.4315448.2277672 23.1787722 0 22.7996134 0 22.0412956 0h-1.1121994c-.7583178 0-1.1121995 0-1.3902493.2277672-.2527726.2277672-.3033271.58207173-.4044362 1.34129572L17.6430524 12.046354c-.1263863.9616837-.202218 1.4425256.0758318 1.7462152.2780499.3036896.7583178.3036896 1.7188537.3036896h4.094916v.0253075zm-9.0492589 3.5936602c.3033271-.9110688.4549907-1.3919107.2274953-1.7462152-.202218-.3543045-.682486-.4302269-1.6430218-.6073792L2.65363761 13.5394945c-.73304052-.1265373-1.11219941-.1771522-1.39024926 0-.27804986.1771523-.40443616.5314568-.63193149 1.2400659L.27757523 15.842474c-.22749534.708609-.35388163 1.0629136-.22749534 1.3919106.1263863.3036896.48026793.4808419 1.13747668.8098389l9.50424953 4.6565739c.8594268.4302269 1.3144175.6326866 1.6935764.4808418.3791589-.1518448.5308224-.6326866.8341495-1.5437554l1.263863-3.9226573zm.5560997 9.6927596c-.783595-.5820717-1.1880312-.8604538-1.5671901-.759224-.4044361.1012299-.6319314.5314568-1.0869221 1.3919107l-4.95434286 9.3637625c-.35388163.6579942-.53082245.9869912-.45499067 1.3159883.07583178.3289971.37915889.5567643.98581312.9869912l.90998134.6579941c.60665422.4302269.90998133.6579941 1.23858567.6326867.3286044-.0253075.6066543-.3036896 1.1121994-.8351464l7.3556825-7.5922399c.682486-.7086091 1.0110904-1.0376062.9858132-1.4678331-.0252773-.4049195-.4297135-.7086091-1.2133085-1.2653733l-3.311321-2.4295168zm14.7366423-5.8460247c.3033271.9110688.4549906 1.3919106.8341495 1.5437554.3791589.1518448.8088723-.0506149 1.6935764-.4808418l9.5042495-4.6565739c.682486-.328997 1.0110904-.5061493 1.1374767-.8098389.1263863-.3036896.0252773-.6579941-.2274953-1.3919106l-.3538817-1.0629136c-.2274953-.7086091-.3538816-1.0629136-.6319315-1.2400659-.2780498-.1771522-.6572087-.1012298-1.3902492.0253075l-10.4142309 1.8221376c-.9605358.1771522-1.4408038.2530746-1.6430219.6073792-.202218.3543045-.0505545.8098389.2274954 1.7462151l1.263863 3.8973499zm-5.2071155 8.2249266c-.783595.5820717-1.1880312.8604538-1.2133084 1.2653733-.0252773.4049194.3033271.759224.9858131 1.467833l7.3556825 7.5922399c.5308224.5314568.783595.809839 1.1121994.8351464.3286044.0253075.6319315-.2024597 1.2385857-.6326866l.9099813-.6579942c.6066543-.4302269.9099814-.6579941.9858131-.9869911.0758318-.3289971-.101109-.6579942-.4549906-1.3159883l-4.9543429-9.3637626c-.4549906-.8604538-.682486-1.2906807-1.0869221-1.3919106-.4044362-.1012299-.7835951.2024597-1.5671901.759224l-3.311321 2.4295168z"></path>
  </g>
</svg>
