<?xml version="1.0" encoding="UTF-8"?>
<svg xmlns="http://www.w3.org/2000/svg" width="230" height="32" viewBox="0 0 230 32">
  <g fill="#000" fill-rule="evenodd">
    <path d="M189.580645 2.61276596h18.7722718v5.00425532H189.580645zM78.5195607 2.61276596h16.1185999v4.90212766h-9.8284145v6.63829788h9.1404255v4.9021276h-9.1404255v7.0468086h10.2215511v4.9021276H78.5195607z"></path>
    <path d="M96.4072752 2.61276596h9.0421414c5.7004804 0 8.8455731 3.2680851 8.8455731 7.96595744 0 3.1659575-1.375978 5.2085106-4.6193548 6.6382979 2.4571036 1.4297872 3.4399451 7.7617021 5.7987646 13.787234h-6.4867537l-1.4742621-5.3106383c-1.7691147-6.1276596-2.1622512-6.6382979-4.8159232-6.6382979v11.9489362h-6.2901853V2.61276596zm8.2558682 11.54042554c2.0639671 0 3.4399451-1.1234043 3.4399451-3.37021278 0-2.24680851-1.1794097-3.16595744-3.4399451-3.16595744h-1.8673987v6.63829782h1.8673987v-.1021276z" fill-rule="nonzero"></path>
    <path d="M117.0469458 2.61276596h6.2901853V16.4h.0982841l6.8798902-13.78723404h6.2901853L129.7256005 16.093617l8.6490049 14.9106383h-6.9781744l-7.9610158-13.6851064h-.0982841v13.6851064h-6.2901853z"></path>
    <path d="M137.8831846 23.0382979C140.5368566 25.2851064 142.0111187 26 143.6819492 26c1.4742622 0 2.5553878-1.0212766 2.5553878-2.3489362 0-4.187234-8.6490048-7.2510638-8.6490048-14.19574465 0-4.08510638 3.4399451-7.25106383 7.9610158-7.25106383 1.9656829 0 3.8330816.5106383 5.995333 1.73617021v5.3106383c-2.7519562-1.53191489-3.931366-2.04255319-5.307344-2.04255319-1.4742622 0-2.5553878.81702127-2.5553878 1.94042553 0 3.37021273 8.9438568 7.45531913 8.9438568 14.19574473 0 4.493617-3.4399446 7.9659574-7.9610153 7.9659574-2.1622512 0-4.1279341-.7148936-6.7816061-2.2468085v-6.0255319zM158.719423 7.51489362h-5.70048V2.61276596h17.199725v4.90212766h-5.70048V31.0042553h-5.70048V7.51489362zM171.692931 2.61276596h16.1186v4.90212766h-9.828415v6.63829788h9.140426v4.9021276h-9.140426v7.0468086h10.221551v4.9021276h-16.413452V2.61276596zM210.613452 2.61276596h5.798765l7.469595 16.03404254h.098284V2.61276596h5.897049V31.0042553h-5.405628l-7.862732-16.7489362h-.098284v16.7489362h-5.897049zM67.7083047 2.61276596L63.6786548 19.0553191 60.53356211 2.61276596h-9.33699382V31.0042553h5.60219629V8.74042553L61.2215511 31.0042553h4.4227866l5.3073438-22.57021275V31.0042553h5.7987646V2.61276596zM189.580645 9.14893617h6.29018531v21.8553191H189.580645zM202.161016 21.506383c0 3.2680851-.196569 4.5957447-2.653672 4.5957447-.884557 0-1.867399-.2042554-2.457104-.306383v5.2085106c1.474262.2042553 2.35882.4085107 3.734798.4085107 7.076458 0 7.567879-4.6978724 7.567879-9.906383V9.14893617h-6.290185V21.506383h.098284z"></path>
    <g>
      <path d="M34.5 11.8V9.6l7.9-4.7h-7.9V2.6h13.3v1.9l-8.3 5.1H47.8v2.2z"></path>
      <path d="M47.8 14.8v-2.2l-13.3 3.9v2.3l13.3 3.6V20l-2.5-.5v-4.1l2.5-.6zM43.2 19l-5-1.5 5-1.4V19z" fill-rule="nonzero"></path>
      <path d="M34.5 20.3l13.3 4.3V26l-13.3 4.4v-2.5l7.9-2.6-7.9-2.5z"></path>
    </g>
    <g>
      <path d="M13.2127661 16.9459902l-2.29787229-2.4353519L24.3191491.20294599l2.2978724 2.43535188zM10.14893636 13.5973813l-2.29787234-2.4353518L18.2872342 0l2.2978724 2.43535188zM6.98936189 10.3502455L4.69148955 7.91489362 12.06383 0l2.2978723 2.43535188zM3.92553211 7.00163666L1.62765977 4.56628478 5.84042572 0l2.39361702 2.43535188z"></path>
      <path d="M26.6170213 30.8477905H0V4.66775777L13.212766 18.7725041 26.6170213 4.66775777z"></path>
    </g>
  </g>
</svg>
