<svg id="Laag_1" data-name="Laag 1" xmlns="http://www.w3.org/2000/svg" viewBox="0 0 335.59 80.06"><defs><style>.cls-1{fill:#000;fill-rule:evenodd;}</style></defs><title>axure</title><g id="Axure_logo_400" data-name="Axure logo 400"><g id="Group-18"><path id="Fill-9" class="cls-1" d="M326.63,19.44c-13.71,0-21.46,2.65-25.9,8.85-4.65,6.48-5.58,16.71-5.58,31.11,0,28.28,4.37,40.1,31.48,40.1,3.26,0,14.39-.06,20.88-.86a4.12,4.12,0,0,0,3.66-4.09V91.43a4.17,4.17,0,0,0-4.27-4.26H326.63c-15.29,0-18.05-3.61-18.44-24.1V56.43c.13-21,2.88-24.66,18.44-24.66,14.34,0,17.1,3.27,17.57,21.74H321.41V66h30c5.9,0,5.9-4.13,5.9-5.48v-4c-.42-28.76-7.3-37.07-30.66-37.07" transform="translate(-21.71 -19.44)"/><path id="Fill-7" class="cls-1" d="M287.15,20.54l-.32-.09a104,104,0,0,0-14.21-1c-13.38,0-20.46,5.61-20.46,16.21v59a4,4,0,0,0,4.14,4.13h4.76a4,4,0,0,0,4.14-4.13v-58c0-2.61.66-5,8.65-5h11.83a4,4,0,0,0,3.11-.9,4.13,4.13,0,0,0,1.44-3.22v-3a4.18,4.18,0,0,0-3.08-4.12" transform="translate(-21.71 -19.44)"/><path id="Fill-4" class="cls-1" d="M230,20.39h-4.76a4,4,0,0,0-4.14,4.13V87.17h-19.8c-12.25,0-17.22-.78-17.22-20.3V24.52a4,4,0,0,0-4.14-4.13h-4.63A4.11,4.11,0,0,0,171,24.52V66.87c0,27.74,10.06,32.63,31.21,32.63,7.61,0,18,0,28-1.4l.23,0c2.45-.61,3.7-2,3.7-4.17V24.52A4,4,0,0,0,230,20.39" transform="translate(-21.71 -19.44)"/><path id="Fill-12" class="cls-1" d="M156.33,22.33h0a3.72,3.72,0,0,0-3.5-2.07h-6.12a4,4,0,0,0-3.81,2l-9.07,13.26,7.94,10.86,13.86-19.89a3.78,3.78,0,0,0,.7-4.16" transform="translate(-21.71 -19.44)"/><path id="Fill-14" class="cls-1" d="M108.51,22.11h0a4.53,4.53,0,0,0-3.83-1.84h-6a3.73,3.73,0,0,0-3.44,1.93,3.93,3.93,0,0,0,.4,4.16L117.82,57.1,92.31,92.67A3.9,3.9,0,0,0,92,96.75a3.76,3.76,0,0,0,3.45,1.93h6.12a4.09,4.09,0,0,0,3.65-2.1l28.54-39.34Z" transform="translate(-21.71 -19.44)"/><path id="Fill-16" class="cls-1" d="M159.38,93l-17.8-24.42-7.82,10.79,14.07,18.78.36.16a4.31,4.31,0,0,0,1.78.39h6a3.83,3.83,0,0,0,3.37-1.76,4,4,0,0,0,.06-3.94" transform="translate(-21.71 -19.44)"/><path id="Fill-1" class="cls-1" d="M68.77,65.43V86.17A149.59,149.59,0,0,1,50.33,87.3c-13.93,0-15.45-3.8-15.45-11.88,0-7.56,2.83-10,11.64-10Zm-19.12-46a141.66,141.66,0,0,0-17.47,1l-.33.07a4,4,0,0,0-3.21,4.16v3a3.84,3.84,0,0,0,4.14,4.13H49.65c13.58,0,19.12,3.68,19.12,12.7v8.77H46.52c-17.39,0-24.81,6.63-24.81,22.18,0,17.33,7.68,24.08,27.4,24.08,8,0,22.68-.62,28.12-2.28,4.58-1.27,4.58-4.77,4.58-5.92V43.66c0-16.3-10.52-24.22-32.16-24.22Z" transform="translate(-21.71 -19.44)"/></g></g></svg>