<?xml version="1.0" encoding="utf-8"?>
<!-- Generator: Adobe Illustrator 24.0.2, SVG Export Plug-In . SVG Version: 6.00 Build 0)  -->
<svg version="1.1" id="Layer_1" xmlns="http://www.w3.org/2000/svg" xmlns:xlink="http://www.w3.org/1999/xlink" x="0px" y="0px"
	 viewBox="0 0 272 47.2" style="enable-background:new 0 0 272 47.2;" xml:space="preserve">
<path d="M96.6,15.4c-2.9-2.9-6.4-4.3-10.4-4.3s-7.5,1.4-10.4,4.3c-1.4,1.4-2.5,2.9-3.2,4.6c-0.2,0.6-0.4,1.2-0.6,1.8
	c-0.4,1.3-0.6,2.6-0.6,4.1c0,2.1,0.4,4,1.1,5.7c0,0,0,0.1,0.1,0.2c0.7,1.7,1.8,3.2,3.2,4.6c2.9,2.9,6.4,4.3,10.4,4.3
	c4.1,0,7.6-1.5,10.4-4.3c1.4-1.4,2.5-3,3.2-4.8c0.7-1.7,1.1-3.6,1.1-5.7c0-1.4-0.2-2.8-0.5-4C99.7,19.4,98.5,17.2,96.6,15.4
	 M86.2,15.3c2.9,0,5.4,1,7.4,3.1c1,1,1.8,2.1,2.3,3.4c0.5,1.2,0.8,2.6,0.8,4.1c0,2.1-0.5,4-1.6,5.7c-0.4,0.6-0.9,1.2-1.4,1.8
	c-2,2-4.5,3-7.4,3c-2.9,0-5.3-1-7.4-3c-0.6-0.6-1-1.1-1.4-1.8c-1.1-1.7-1.7-3.6-1.7-5.7c0-1.5,0.3-2.8,0.8-4
	c0.5-1.2,1.3-2.4,2.3-3.4C80.8,16.3,83.3,15.3,86.2,15.3 M128.4,11.7h-4.6l-9.4,23.2L105,11.7h-4.6L112,39.9h4.8L128.4,11.7
	 M152.8,15.5c-2.6-2.9-6-4.4-10.1-4.4c-4.3,0-7.8,1.4-10.6,4.2c-1.8,1.9-3,4-3.6,6.5c-0.3,1.3-0.5,2.7-0.5,4.1c0,2.1,0.3,3.9,1,5.6
	c0.7,1.8,1.7,3.5,3.2,5c2.8,2.8,6.4,4.2,10.8,4.2c2.7,0,5.2-0.6,7.3-1.7c2.2-1.2,3.9-2.8,5.1-4.8l0.1-0.2l-3.8-2.2l-0.2,0.3
	c-0.7,1.3-1.8,2.4-3.3,3.2c-1.5,0.9-3.2,1.3-5.2,1.3c-2.8,0-5.2-0.8-7.2-2.4c-0.9-0.7-1.6-1.6-2.1-2.5c-0.6-1-1-2.2-1.2-3.5h24.1
	l0.1-2c0-1.5-0.2-2.9-0.5-4.2C155.6,19.4,154.4,17.4,152.8,15.5 M142.7,15.3c2.4,0,4.6,0.8,6.4,2.4c1.3,1.1,2.2,2.4,2.8,4.1
	c0.2,0.6,0.4,1.3,0.4,2h-19.8c0.1-0.7,0.3-1.4,0.6-2c0.5-1.6,1.4-2.9,2.7-4C137.6,16.1,139.9,15.3,142.7,15.3 M164.8,15.4v-3.6h-4.3
	V40h4.3V24.3c0-0.9,0.1-1.8,0.2-2.5c0.3-1.8,1-3.1,2.1-4.1c1.6-1.4,3.6-2.1,5.9-2.1h0.4v-4.2h-0.4C169.4,11.3,166.6,12.7,164.8,15.4
	 M189.6,4.3V0.1l-0.3-0.1c-3.8-0.3-6.7,0.6-8.8,2.5c-2.1,1.9-3.1,4.7-3.1,8.4v29h4.4V16h7.9v-4.2h-7.9V11c0-2.6,0.6-4.4,1.8-5.4
	c1.3-1.1,3.2-1.5,5.8-1.3L189.6,4.3 M197.9,0h-4.1v39.8h4.1V0 M217.2,11.1c-4.1,0-7.6,1.4-10.4,4.3c-1.9,1.9-3.1,4-3.8,6.4
	c-0.4,1.3-0.6,2.7-0.6,4.1c0,2,0.4,3.9,1.1,5.7c0.7,1.8,1.8,3.4,3.2,4.8c2.9,2.9,6.3,4.4,10.4,4.3c4.1,0,7.5-1.5,10.4-4.3
	c1.5-1.4,2.6-3,3.3-4.8c0.7-1.7,1.1-3.6,1.1-5.6c0-1.4-0.2-2.8-0.6-4.1c-0.7-2.4-1.9-4.5-3.8-6.4C224.7,12.5,221.3,11.1,217.2,11.1
	 M209.8,18.5c2.1-2.1,4.6-3.1,7.4-3.1c2.9,0,5.3,1,7.4,3.1c1,1,1.8,2.1,2.3,3.3c0.5,1.3,0.8,2.6,0.8,4.1c0,2.1-0.5,4-1.6,5.7
	c-0.4,0.6-0.9,1.2-1.5,1.8c-2.1,2-4.5,3-7.4,3c-2.9,0-5.4-1-7.4-3c-0.6-0.6-1.1-1.2-1.4-1.8c-1.1-1.7-1.6-3.5-1.6-5.6
	c0-1.5,0.3-2.8,0.8-4.1C208,20.6,208.8,19.5,209.8,18.5 M272,11.8h-4.5l-6.5,22l-7-22.1h-4.1l-6.9,22l-6.6-22h-4.4l8.7,28.2h4.4
	l6.9-21.5l6.8,21.5h4.5C263.2,40,272,11.8,272,11.8z"/>
<path d="M47.2,20.3c0-5.6-2-10.3-5.9-14.2S32.6,0.1,27,0.2c-5.6,0-10.3,2-14.2,5.9s-5.9,8.7-5.9,14.2C6.8,20.3,47.1,20.3,47.2,20.3z
	"/>
<path d="M53.7,20.3h-6.5v0.4c-0.1,5.4-2,10.1-5.9,13.9l-0.1,0.1c-3.9,3.9-8.7,5.8-14.1,5.8s-10.2-1.9-14.1-5.8l-0.1-0.1
	c-3.9-3.8-5.8-8.5-5.9-13.9v-0.4H0.4c-0.3,0-0.4,0.1-0.4,0.4C0.1,28,2.8,34.2,8.1,39.4s11.6,7.8,19,7.8s13.7-2.6,19-7.8
	s8-11.5,8-18.8C54,20.4,53.9,20.3,53.7,20.3z"/>
</svg>
