<?xml version="1.0" encoding="utf-8"?>
<!-- Generator: Adobe Illustrator 23.1.1, SVG Export Plug-In . SVG Version: 6.00 Build 0)  -->
<svg version="1.1" id="Layer_1" xmlns="http://www.w3.org/2000/svg" xmlns:xlink="http://www.w3.org/1999/xlink" x="0px" y="0px"
	 viewBox="0 0 1070 1070" style="enable-background:new 0 0 1070 1070;" xml:space="preserve">
<style type="text/css">
	.st0{clip-path:url(#SVGID_4_);}
	.st1{stroke:#FFFFFF;stroke-width:7;stroke-linejoin:round;stroke-miterlimit:10;}
	.st2{clip-path:url(#SVGID_8_);stroke:#FFFFFF;stroke-width:7;stroke-linejoin:round;stroke-miterlimit:10;}
	.st3{clip-path:url(#SVGID_12_);stroke:#FFFFFF;stroke-width:7;stroke-linejoin:round;stroke-miterlimit:10;}
	.st4{clip-path:url(#SVGID_16_);stroke:#FFFFFF;stroke-width:7;stroke-linejoin:round;stroke-miterlimit:10;}
	.st5{clip-path:url(#SVGID_19_);stroke:#FFFFFF;stroke-width:7;stroke-linejoin:round;stroke-miterlimit:10;}
	.st6{clip-path:url(#SVGID_21_);stroke:#FFFFFF;stroke-width:7;stroke-linejoin:round;stroke-miterlimit:10;}
	.st7{clip-path:url(#SVGID_23_);stroke:#FFFFFF;stroke-width:7;stroke-linejoin:round;stroke-miterlimit:10;}
	.st8{clip-path:url(#SVGID_25_);stroke:#FFFFFF;stroke-width:7;stroke-linejoin:round;stroke-miterlimit:10;}
	.st9{clip-path:url(#SVGID_27_);stroke:#FFFFFF;stroke-width:7;stroke-linejoin:round;stroke-miterlimit:10;}
</style>
<g>
	<g>
		<g>
			<g>
				<path id="SVGID_1_" d="M969.6,450v-2.9h-2.9h-16.3h-2.9v2.9v172.2v2.9h2.9h16.3h2.9v-2.9v-69.1c0-21.1,12.8-33.4,32.3-33.4
					c18.6,0,27.9,10.8,27.9,31.1v71.4v2.9h2.9h16.3h2.9v-2.9v-74.6c0-28.8-17.8-47.9-47.2-47.9c-15.1,0-27.3,5.5-35,13.5L969.6,450
					L969.6,450z M870.9,627.8c30.5,0,52.1-19.3,57.5-46.6l0.7-3.4h-3.5H909h-2.2l-0.6,2.1c-4.6,17.4-17.2,27.5-35.3,27.5
					c-22.6,0-38.2-17.8-38.2-43.5c0-25.9,15.6-43.7,38.2-43.7c18.1,0,30.7,10.1,35.3,27.5l0.6,2.1h2.2h16.5h3.5l-0.7-3.4
					c-5.4-27.3-27-46.6-57.5-46.6c-35.4,0-60.5,28.5-60.5,64.2C810.4,599.4,835.5,627.8,870.9,627.8z M802.4,522h2.9v-2.9v-13.8
					v-2.9h-2.9h-24V472v-2.9h-2.9h-16.3h-2.9v2.9v30.4h-19.4H734v2.9v13.8v2.9h2.9h19.4v68.8c0,22.6,11.7,34.8,33.2,34.8
					c3.7,0,7-0.2,9.7-0.6c1.7-0.2,2.8-0.5,3.5-0.7l2.1-0.6v-2.2v-14.7v-3.6l-3.5,0.8c-0.1,0-0.4,0.1-0.8,0.2
					c-0.7,0.1-1.4,0.3-2.3,0.4c-2.1,0.3-4.2,0.5-6.1,0.5c-0.2,0-0.4,0-0.6,0c-9.4,0-13.2-4.4-13.2-15.5V522H802.4z M633.6,552.3
					c3.7-19.3,17.9-32.1,37.3-32.1c19.9,0,33.7,12.4,36.7,32.1H633.6z M726.9,571.3h2.7l0.2-2.7c0-0.5,0.1-1.3,0.1-2.2
					c0-0.7,0.1-1.5,0.1-2.2s0-1.4,0-2c0-36-23.9-62.6-59.1-62.6c-35.2,0-60.3,28.3-60.3,63.9c0,36.7,23.9,64.2,60.5,64.2
					c27.6,0,49-16.4,56.7-41.3l1.2-3.7h-3.9h-17h-2l-0.7,1.9c-4.8,13.6-17.9,22.7-34,22.7c-21.1,0-35.8-14.5-38.4-36H726.9z
					 M521,450v-2.9h-2.9h-16.3h-2.9v2.9v172.2v2.9h2.9h16.3h2.9v-2.9v-30.7l23.2-22.6l41.4,55l0.9,1.1h1.4h20.2h5.8l-3.5-4.6
					l-50.6-66.7l46.7-46.4l4.9-4.9h-7h-21.8h-1.2l-0.8,0.8l-59.6,60L521,450L521,450z M369.1,572.6l-0.2-2.7h-2.7h-16.5h-3l0.1,3
					c1.4,33.3,23.8,55.3,63.7,55.3c38.1,0,63.9-19.8,63.9-49.7c0-16.2-5.6-27.6-16.3-35.5c-8.2-6-18.1-9.4-34.4-12.9
					c-1.1-0.2-2.2-0.5-3.6-0.8c-0.8-0.2-3.7-0.8-3.6-0.7c-29.6-6.2-39-11.6-39-27.7c0-16.6,13.6-27.2,36.4-27.2
					c22.2,0,36.2,13.5,36.9,34.9l0.1,2.8h2.8H470h2.9l-0.1-2.9c-0.8-33.2-23.1-55.6-59.1-55.6c-35.3,0-58.7,21.3-58.7,48.8
					c0,16.1,5.6,27.4,16.3,34.9c8.2,5.7,17.6,8.8,34.3,12.1c0.8,0.2,1.6,0.3,2.6,0.5c0.6,0.1,1.3,0.3,2.6,0.5
					c15.8,3.1,22.8,5,29.1,8.7c7.9,4.6,11.8,11.1,11.8,21.3c0,17.6-14.8,27.7-40.8,27.7C386.2,607.4,370.8,594.9,369.1,572.6z"/>
			</g>
			<g>
				<defs>
					<path id="SVGID_2_" d="M969.6,450v-2.9h-2.9h-16.3h-2.9v2.9v172.2v2.9h2.9h16.3h2.9v-2.9v-69.1c0-21.1,12.8-33.4,32.3-33.4
						c18.6,0,27.9,10.8,27.9,31.1v71.4v2.9h2.9h16.3h2.9v-2.9v-74.6c0-28.8-17.8-47.9-47.2-47.9c-15.1,0-27.3,5.5-35,13.5L969.6,450
						L969.6,450z M870.9,627.8c30.5,0,52.1-19.3,57.5-46.6l0.7-3.4h-3.5H909h-2.2l-0.6,2.1c-4.6,17.4-17.2,27.5-35.3,27.5
						c-22.6,0-38.2-17.8-38.2-43.5c0-25.9,15.6-43.7,38.2-43.7c18.1,0,30.7,10.1,35.3,27.5l0.6,2.1h2.2h16.5h3.5l-0.7-3.4
						c-5.4-27.3-27-46.6-57.5-46.6c-35.4,0-60.5,28.5-60.5,64.2C810.4,599.4,835.5,627.8,870.9,627.8z M802.4,522h2.9v-2.9v-13.8
						v-2.9h-2.9h-24V472v-2.9h-2.9h-16.3h-2.9v2.9v30.4h-19.4H734v2.9v13.8v2.9h2.9h19.4v68.8c0,22.6,11.7,34.8,33.2,34.8
						c3.7,0,7-0.2,9.7-0.6c1.7-0.2,2.8-0.5,3.5-0.7l2.1-0.6v-2.2v-14.7v-3.6l-3.5,0.8c-0.1,0-0.4,0.1-0.8,0.2
						c-0.7,0.1-1.4,0.3-2.3,0.4c-2.1,0.3-4.2,0.5-6.1,0.5c-0.2,0-0.4,0-0.6,0c-9.4,0-13.2-4.4-13.2-15.5V522H802.4z M633.6,552.3
						c3.7-19.3,17.9-32.1,37.3-32.1c19.9,0,33.7,12.4,36.7,32.1H633.6z M726.9,571.3h2.7l0.2-2.7c0-0.5,0.1-1.3,0.1-2.2
						c0-0.7,0.1-1.5,0.1-2.2s0-1.4,0-2c0-36-23.9-62.6-59.1-62.6c-35.2,0-60.3,28.3-60.3,63.9c0,36.7,23.9,64.2,60.5,64.2
						c27.6,0,49-16.4,56.7-41.3l1.2-3.7h-3.9h-17h-2l-0.7,1.9c-4.8,13.6-17.9,22.7-34,22.7c-21.1,0-35.8-14.5-38.4-36H726.9z
						 M521,450v-2.9h-2.9h-16.3h-2.9v2.9v172.2v2.9h2.9h16.3h2.9v-2.9v-30.7l23.2-22.6l41.4,55l0.9,1.1h1.4h20.2h5.8l-3.5-4.6
						l-50.6-66.7l46.7-46.4l4.9-4.9h-7h-21.8h-1.2l-0.8,0.8l-59.6,60L521,450L521,450z M369.1,572.6l-0.2-2.7h-2.7h-16.5h-3l0.1,3
						c1.4,33.3,23.8,55.3,63.7,55.3c38.1,0,63.9-19.8,63.9-49.7c0-16.2-5.6-27.6-16.3-35.5c-8.2-6-18.1-9.4-34.4-12.9
						c-1.1-0.2-2.2-0.5-3.6-0.8c-0.8-0.2-3.7-0.8-3.6-0.7c-29.6-6.2-39-11.6-39-27.7c0-16.6,13.6-27.2,36.4-27.2
						c22.2,0,36.2,13.5,36.9,34.9l0.1,2.8h2.8H470h2.9l-0.1-2.9c-0.8-33.2-23.1-55.6-59.1-55.6c-35.3,0-58.7,21.3-58.7,48.8
						c0,16.1,5.6,27.4,16.3,34.9c8.2,5.7,17.6,8.8,34.3,12.1c0.8,0.2,1.6,0.3,2.6,0.5c0.6,0.1,1.3,0.3,2.6,0.5
						c15.8,3.1,22.8,5,29.1,8.7c7.9,4.6,11.8,11.1,11.8,21.3c0,17.6-14.8,27.7-40.8,27.7C386.2,607.4,370.8,594.9,369.1,572.6z"/>
				</defs>
				<use xlink:href="#SVGID_2_"  style="overflow:visible;"/>
				<clipPath id="SVGID_4_">
					<use xlink:href="#SVGID_2_"  style="overflow:visible;"/>
				</clipPath>
				<rect x="333" y="433.4" class="st0" width="732.5" height="208.5"/>
			</g>
		</g>
	</g>
	<g>
		<g>
			<g>
				<polygon id="SVGID_3_" class="st1" points="75.8,424.9 149.6,417.2 223.4,424.9 280.6,501 149.6,652.3 18.7,501 				"/>
			</g>
			<g>
				<defs>
					<polygon id="SVGID_6_" points="75.8,424.9 149.6,417.2 223.4,424.9 280.6,501 149.6,652.3 18.7,501 					"/>
				</defs>
				<use xlink:href="#SVGID_6_"  style="overflow:visible;"/>
				<clipPath id="SVGID_8_">
					<use xlink:href="#SVGID_6_"  style="overflow:visible;"/>
				</clipPath>
				<rect x="5" y="403.5" class="st2" width="289.2" height="262.4"/>
				
					<use xlink:href="#SVGID_6_"  style="overflow:visible;fill:none;stroke:#FFFFFF;stroke-width:7;stroke-linejoin:round;stroke-miterlimit:10;"/>
			</g>
		</g>
	</g>
	<g>
		<g>
			<g>
				<polygon id="SVGID_5_" class="st1" points="71.7,501 149.6,652.3 18.7,501 				"/>
			</g>
			<g>
				<defs>
					<polygon id="SVGID_10_" points="71.7,501 149.6,652.3 18.7,501 					"/>
				</defs>
				<use xlink:href="#SVGID_10_"  style="overflow:visible;"/>
				<clipPath id="SVGID_12_">
					<use xlink:href="#SVGID_10_"  style="overflow:visible;"/>
				</clipPath>
				<rect x="5" y="487.3" class="st3" width="158.3" height="178.6"/>
				
					<use xlink:href="#SVGID_10_"  style="overflow:visible;fill:none;stroke:#FFFFFF;stroke-width:7;stroke-linejoin:round;stroke-miterlimit:10;"/>
			</g>
		</g>
	</g>
	<g>
		<g>
			<g>
				<polygon id="SVGID_7_" class="st1" points="227.5,501 149.6,652.3 280.6,501 				"/>
			</g>
			<g>
				<defs>
					<polygon id="SVGID_14_" points="227.5,501 149.6,652.3 280.6,501 					"/>
				</defs>
				<use xlink:href="#SVGID_14_"  style="overflow:visible;"/>
				<clipPath id="SVGID_16_">
					<use xlink:href="#SVGID_14_"  style="overflow:visible;"/>
				</clipPath>
				<rect x="136" y="487.3" class="st4" width="158.3" height="178.6"/>
				
					<use xlink:href="#SVGID_14_"  style="overflow:visible;fill:none;stroke:#FFFFFF;stroke-width:7;stroke-linejoin:round;stroke-miterlimit:10;"/>
			</g>
		</g>
	</g>
	<g>
		<g>
			<g>
				<polygon id="SVGID_9_" class="st1" points="71.7,501 227.5,501 149.6,652.3 				"/>
			</g>
			<g>
				<defs>
					<polygon id="SVGID_18_" points="71.7,501 227.5,501 149.6,652.3 					"/>
				</defs>
				<use xlink:href="#SVGID_18_"  style="overflow:visible;"/>
				<clipPath id="SVGID_19_">
					<use xlink:href="#SVGID_18_"  style="overflow:visible;"/>
				</clipPath>
				<rect x="58.1" y="487.3" class="st5" width="183.1" height="178.6"/>
				
					<use xlink:href="#SVGID_18_"  style="overflow:visible;fill:none;stroke:#FFFFFF;stroke-width:7;stroke-linejoin:round;stroke-miterlimit:10;"/>
			</g>
		</g>
	</g>
	<g>
		<g>
			<g>
				<polygon id="SVGID_11_" class="st1" points="149.6,417.2 75.8,424.9 71.7,501 				"/>
			</g>
			<g>
				<defs>
					<polygon id="SVGID_20_" points="149.6,417.2 75.8,424.9 71.7,501 					"/>
				</defs>
				<use xlink:href="#SVGID_20_"  style="overflow:visible;"/>
				<clipPath id="SVGID_21_">
					<use xlink:href="#SVGID_20_"  style="overflow:visible;"/>
				</clipPath>
				<rect x="58.1" y="403.5" class="st6" width="105.2" height="111.2"/>
				
					<use xlink:href="#SVGID_20_"  style="overflow:visible;fill:none;stroke:#FFFFFF;stroke-width:7;stroke-linejoin:round;stroke-miterlimit:10;"/>
			</g>
		</g>
	</g>
	<g>
		<g>
			<g>
				<polygon id="SVGID_13_" class="st1" points="149.6,417.2 223.4,424.9 227.5,501 				"/>
			</g>
			<g>
				<defs>
					<polygon id="SVGID_22_" points="149.6,417.2 223.4,424.9 227.5,501 					"/>
				</defs>
				<use xlink:href="#SVGID_22_"  style="overflow:visible;"/>
				<clipPath id="SVGID_23_">
					<use xlink:href="#SVGID_22_"  style="overflow:visible;"/>
				</clipPath>
				<rect x="136" y="403.5" class="st7" width="105.2" height="111.2"/>
				
					<use xlink:href="#SVGID_22_"  style="overflow:visible;fill:none;stroke:#FFFFFF;stroke-width:7;stroke-linejoin:round;stroke-miterlimit:10;"/>
			</g>
		</g>
	</g>
	<g>
		<g>
			<g>
				<polygon id="SVGID_15_" class="st1" points="280.6,501 223.4,424.9 227.5,501 				"/>
			</g>
			<g>
				<defs>
					<polygon id="SVGID_24_" points="280.6,501 223.4,424.9 227.5,501 					"/>
				</defs>
				<use xlink:href="#SVGID_24_"  style="overflow:visible;"/>
				<clipPath id="SVGID_25_">
					<use xlink:href="#SVGID_24_"  style="overflow:visible;"/>
				</clipPath>
				<rect x="209.8" y="411.3" class="st8" width="84.5" height="103.4"/>
				
					<use xlink:href="#SVGID_24_"  style="overflow:visible;fill:none;stroke:#FFFFFF;stroke-width:7;stroke-linejoin:round;stroke-miterlimit:10;"/>
			</g>
		</g>
	</g>
	<g>
		<g>
			<g>
				<polygon id="SVGID_17_" class="st1" points="149.6,417.2 71.7,501 227.5,501 				"/>
			</g>
			<g>
				<defs>
					<polygon id="SVGID_26_" points="149.6,417.2 71.7,501 227.5,501 					"/>
				</defs>
				<use xlink:href="#SVGID_26_"  style="overflow:visible;"/>
				<clipPath id="SVGID_27_">
					<use xlink:href="#SVGID_26_"  style="overflow:visible;"/>
				</clipPath>
				<rect x="58.1" y="403.5" class="st9" width="183.1" height="111.2"/>
				
					<use xlink:href="#SVGID_26_"  style="overflow:visible;fill:none;stroke:#FFFFFF;stroke-width:7;stroke-linejoin:round;stroke-miterlimit:10;"/>
			</g>
		</g>
	</g>
</g>
</svg>
