<?xml version="1.0" encoding="UTF-8"?>
<svg width="108px" height="32px" viewBox="0 0 108 32" version="1.1" xmlns="http://www.w3.org/2000/svg" xmlns:xlink="http://www.w3.org/1999/xlink">
    <!-- Generator: Sketch 61.2 (89653) - https://sketch.com -->
    <title>craft</title>
    <desc>Created with Sketch.</desc>
    <g id="Page-1" stroke="none" stroke-width="1" fill="none" fill-rule="evenodd">
        <g id="Contact" transform="translate(-245.000000, -749.000000)" fill="#D4D7D4" fill-rule="nonzero">
            <g id="craft" transform="translate(245.000000, 749.000000)">
                <path d="M53.877536,13.5895282 L58.4142166,13.5895282 L58.9500451,10.6896045 L54.4133644,10.6896045 L55.1813851,6.44712344 L55.1635242,6.44712344 L51.7163613,9.25754336 L51.4663081,10.6717037 L47.8941186,10.6717037 L48.9300535,4.96136004 C49.1801068,2.81326837 52.3236335,3.45769587 52.7880182,3.58300122 L53.2881247,0.826283585 C47.6262044,-1.44711342 45.9829972,4.96136004 45.9829972,4.96136004 L44.9470622,10.6717037 L44.9292013,10.6717037 L41.3927337,13.5716274 L44.4290948,13.5716274 L41.0890976,31.8304066 L44.0361539,31.8304066 L47.3582902,13.5895282 L50.9304796,13.5895282 L49.6266305,20.731933 C48.8050269,25.9231545 53.7882312,25.3503301 55.3778556,25.0281163 L55.8779621,22.3072002 C52.0735803,23.2022384 52.5736868,20.731933 52.5736868,20.731933 L53.877536,13.5895282 L53.877536,13.5895282 Z M36.3559465,20.9109406 C33.0695322,24.3836888 30.9619404,22.1102918 30.9619404,22.1102918 C29.5330646,20.6782307 31.104828,19.2103681 31.104828,19.2103681 C33.2838636,17.169681 36.6059998,19.4072765 36.6059998,19.4072765 L36.3559465,20.9109406 Z M36.8381921,17.2591848 C36.8381921,17.2591848 32.4979819,14.9499863 29.4616208,17.5276963 C29.4616208,17.5276963 27.6755261,18.762849 27.6755261,21.2152536 C27.6755261,23.6676583 29.8545616,24.9923148 29.8545616,24.9923148 C29.8545616,24.9923148 33.123115,26.7823912 35.6772305,23.918269 L35.3914554,25.2429255 L38.249207,25.2429255 L40.0531626,16.4178489 C41.4105947,7.70017691 31.3727422,10.7970091 31.3727422,10.7970091 L30.8190528,13.9296427 C38.2134851,10.6001006 36.9632187,16.3999481 36.9632187,16.3999481 L36.8381921,17.2591848 L36.8381921,17.2591848 Z M29.4794818,11.1550243 C27.0682538,11.1729251 24.8892183,12.5154824 24.8892183,12.5154824 L25.1749934,11.2087266 L22.2993809,11.2087266 L19.6738216,25.5293377 L22.6208779,25.5293377 L24.4069727,16.0956352 C25.7286828,13.4284213 28.9793752,14.2697572 28.9793752,14.2697572 L29.4794818,11.1550243 L29.4794818,11.1550243 Z M17.9234488,4.88975698 C18.0663363,4.99716156 18.2092239,5.12246691 18.3342505,5.24777226 L20.4775642,3.51139816 L20.549008,3.42189434 C20.20965,3.08177983 19.870292,2.75956608 19.4773512,2.4552531 C14.5477297,-1.37551037 7.11757554,0.235558378 2.86667005,6.03540587 C-1.38423545,11.8352534 -0.848407023,19.6399864 4.08121447,23.4707499 C8.09992765,26.5854828 13.7975699,26.1021621 18.0663363,22.6473147 L18.0663363,22.6473147 L16.0301883,21.0004444 C12.8688006,23.0948338 8.93939218,23.2380399 6.09950154,21.036246 C2.31298068,18.1005207 1.90217889,12.1037648 5.17073227,7.64647461 C8.42142471,3.17128365 14.1369279,1.93613094 17.9234488,4.88975698 L17.9234488,4.88975698 Z M73.238803,24.1688797 C72.5958089,24.5805972 71.899232,24.902811 71.1847941,25.1534217 C70.4346343,25.4040324 69.6308916,25.5293377 68.7557052,25.5293377 C67.7197703,25.5293377 66.77314,25.3503301 65.8979536,24.974414 C65.0584891,24.6342995 64.2904683,24.1151774 63.6474742,23.4528491 C63.0223411,22.7905208 62.5222345,22.020788 62.1650156,21.1794521 C61.8077966,20.3023147 61.6291872,19.3714749 61.6291872,18.3690322 C61.6291872,17.3665894 61.8077966,16.4357497 62.1471546,15.5586122 C62.4865126,14.6993756 62.9866192,13.911742 63.6296133,13.2494137 C64.2726074,12.5870854 65.0406281,12.0679633 65.8979536,11.6920472 C66.77314,11.3161312 67.7197703,11.1192228 68.7557052,11.1192228 C69.6308916,11.1192228 70.4346343,11.2445281 71.1847941,11.4951388 C71.9349538,11.7457495 72.6136699,12.085864 73.256664,12.4796809 L72.6851136,13.3210168 C72.1314243,12.9630015 71.5241521,12.6765893 70.8811579,12.4438793 C70.2381638,12.2111694 69.5415869,12.1037648 68.7557052,12.1037648 C67.8626578,12.1037648 67.0410542,12.2648717 66.3087554,12.5870854 C65.5943175,12.8913984 64.9513234,13.3389175 64.415495,13.8938412 C63.8796665,14.4487649 63.4688648,15.1110931 63.1830896,15.8450245 C62.8973144,16.6147573 62.7365659,17.4560932 62.7544269,18.2795283 C62.7544269,19.138765 62.8973144,19.9622001 63.1830896,20.731933 C63.4510038,21.4658643 63.8796665,22.1460933 64.415495,22.7368185 C64.9513234,23.309643 65.5943175,23.7571621 66.3087554,24.0793758 C67.0410542,24.4015896 67.8626578,24.5626965 68.7557052,24.5626965 C69.5415869,24.5626965 70.2560248,24.4373911 70.8811579,24.2225819 C71.5241521,23.989872 72.1135633,23.685559 72.6851136,23.3454445 L73.238803,24.1688797 L73.238803,24.1688797 Z M94.5290524,25.5293377 L94.5290524,16.0419329 C94.5290524,13.4642229 93.4752565,12.1753679 91.3676647,12.1753679 C90.4031735,12.1753679 89.4744042,12.4796809 88.5992178,13.0525053 C87.7240314,13.6432305 86.9381497,14.4308641 86.2415728,15.3975054 L86.2415728,25.5293377 L85.2056378,25.5293377 L85.2056378,16.0419329 C85.2056378,13.4642229 84.1518419,12.1753679 82.0442501,12.1753679 C81.061898,12.1753679 80.1331287,12.4796809 79.2936642,13.0525053 C78.4184778,13.6611313 77.6147351,14.3950626 76.9181582,15.2363985 L76.9181582,25.5293377 L75.9179451,25.5293377 L75.9179451,11.4235358 L76.9181582,11.4235358 L76.9181582,14.0728488 C77.2217943,13.7148336 77.5611523,13.3568183 77.9540931,12.998803 C78.347034,12.6407877 78.7578358,12.3364747 79.1864985,12.0679633 C79.6330222,11.7994518 80.0974068,11.5667419 80.6153743,11.405635 C81.1333418,11.2266274 81.6870312,11.1550243 82.2228596,11.1550243 C83.115907,11.1550243 83.9196496,11.4235358 84.5983656,11.9426579 C85.2770816,12.4617801 85.7414662,13.2673145 85.9915195,14.3592611 C86.6345136,13.5000244 87.4382562,12.7481923 88.4027474,12.1216656 C89.3672386,11.4951388 90.4031735,11.1729251 91.5284132,11.1729251 C92.0463807,11.1729251 92.5643482,11.2624289 93.0644547,11.4414366 C93.5467003,11.6204442 93.975363,11.9068564 94.3504429,12.3006732 C94.7255228,12.69449 95.0291589,13.1957114 95.2434903,13.8043374 C95.4578216,14.4129634 95.5649873,15.1289939 95.5649873,15.9703298 L95.5649873,25.5472385 L94.5290524,25.5293377 L94.5290524,25.5293377 Z M107.174603,21.6985742 C107.174603,22.2176964 107.085298,22.701017 106.870967,23.1664369 C106.674497,23.6318567 106.388721,24.0435743 106.013642,24.3836888 C105.620701,24.7417041 105.174177,25.0281163 104.674071,25.2250247 C104.156103,25.4398339 103.566692,25.5472385 102.905837,25.5472385 C102.03065,25.5472385 101.209047,25.4040324 100.441026,25.0997194 C99.6551443,24.7954064 98.9228455,24.4015896 98.2262685,23.918269 L98.726375,23.1127346 C99.3515082,23.5423529 100.012363,23.918269 100.70894,24.2046812 C101.387656,24.4910934 102.119955,24.6342995 102.923698,24.6342995 C103.90605,24.6342995 104.709792,24.3657881 105.299204,23.8287651 C105.888615,23.2917422 106.192251,22.6473147 106.192251,21.8596811 C106.192251,21.1973529 106.013642,20.6603299 105.656423,20.2665131 C105.299204,19.8726963 104.85268,19.5504826 104.316852,19.2640704 C103.781023,18.9776581 103.209473,18.7270474 102.58434,18.5122383 C101.977067,18.2974291 101.405517,18.0289176 100.851828,17.7067039 C100.33386,17.4202917 99.8873366,17.0085741 99.5122567,16.5431542 C99.1550378,16.0777344 98.9764283,15.4512077 98.9764283,14.6814748 C98.9764283,14.2339557 99.065733,13.8043374 99.2622035,13.374719 C99.4586739,12.9451007 99.7265881,12.5512839 100.065946,12.2469709 C100.441026,11.9068564 100.869689,11.6204442 101.351934,11.4414366 C101.852041,11.2445281 102.441452,11.1371236 103.102307,11.1371236 C103.834606,11.1371236 104.513322,11.2445281 105.156316,11.4772381 C105.79931,11.6920472 106.442304,12.0321618 107.049577,12.4796809 L106.54947,13.3210168 C105.960059,12.8734977 105.388508,12.5512839 104.85268,12.3543755 C104.28113,12.1574671 103.691718,12.0500625 103.084446,12.0500625 C102.03065,12.0500625 101.244769,12.318574 100.726801,12.8376961 C100.208834,13.3568183 99.9587804,13.9475435 99.9587804,14.591971 C99.9587804,15.2542993 100.13739,15.7913222 100.494609,16.185139 C100.851828,16.5789558 101.298351,16.9011695 101.83418,17.169681 C102.370008,17.4381924 102.941559,17.6888031 103.566692,17.9036123 C104.173964,18.1184215 104.763375,18.3869329 105.299204,18.6912459 C105.835032,18.9955589 106.281556,19.3714749 106.638775,19.8368948 C106.995994,20.2844139 107.174603,20.9109406 107.174603,21.6985742 L107.174603,21.6985742 Z" id="Shape"></path>
            </g>
        </g>
    </g>
</svg>