<?xml version="1.0" encoding="UTF-8"?>
<svg width="117px" height="32px" viewBox="0 0 117 32" version="1.1" xmlns="http://www.w3.org/2000/svg" xmlns:xlink="http://www.w3.org/1999/xlink">
    <!-- Generator: Sketch 61.2 (89653) - https://sketch.com -->
    <title>laravel</title>
    <desc>Created with Sketch.</desc>
    <g id="Page-1" stroke="none" stroke-width="1" fill="none" fill-rule="evenodd">
        <g id="Contact" transform="translate(-454.000000, -749.000000)" fill="#D4D7D4" fill-rule="nonzero">
            <g id="laravel" transform="translate(454.000000, 749.000000)">
                <path d="M28.9066667,31.36 C28.6933333,31.36 28.48,31.2533333 28.2666667,31.04 L23.04,22.2933333 L13.2266667,24.96 C12.9066667,25.0666667 12.5866667,24.8533333 12.48,24.64 L0.96,2.98666667 C0.746666667,2.66666667 0.96,2.24 1.28,2.02666667 C1.38666667,2.02666667 1.38666667,1.92 1.49333333,1.92 L11.2,0.64 C11.52,0.64 11.7333333,0.746666667 11.84,0.96 L23.5733333,20.5866667 L37.3333333,16.96 L32.7466667,10.56 C32.5333333,10.24 32.64,9.81333333 32.8533333,9.6 C32.96,9.6 32.96,9.49333333 33.0666667,9.49333333 L39.4666667,8 C39.68,7.89333333 40,8 40.2133333,8.21333333 L45.76,15.1466667 C45.9733333,15.4666667 45.9733333,15.8933333 45.6533333,16.1066667 C45.5466667,16.2133333 45.44,16.2133333 45.44,16.2133333 L39.68,17.8133333 L44.8,24.96 C45.0133333,25.28 44.9066667,25.7066667 44.5866667,25.92 C44.5866667,25.92 44.48,26.0266667 44.3733333,26.0266667 L29.12,31.36 C29.0133333,31.2533333 28.9066667,31.36 28.9066667,31.36 L28.9066667,31.36 Z M24.4266667,21.8666667 L29.2266667,29.76 L43.0933333,24.96 L38.1866667,18.1333333 L24.4266667,21.8666667 Z M2.66666667,3.2 L13.44,23.36 L22.2933333,20.9066667 L10.9866667,2.13333333 L2.66666667,3.2 Z M34.4533333,10.56 L38.72,16.5333333 L44.0533333,15.04 L39.4666667,9.38666667 L34.4533333,10.56 Z M53.0133333,8.42666667 L54.4,8.42666667 L54.4,23.2533333 L53.0133333,23.2533333 L53.0133333,8.42666667 Z M67.9466667,12.5866667 L67.9466667,23.36 L66.56,23.36 L66.56,21.5466667 C66.0266667,22.1866667 65.3866667,22.72 64.64,23.1466667 C62.5066667,24.1066667 60.0533333,23.68 58.3466667,22.08 C57.28,21.0133333 56.7466667,19.52 56.7466667,18.0266667 C56.7466667,16.5333333 57.28,15.1466667 58.3466667,14.08 C59.4133333,13.0133333 60.8,12.3733333 62.2933333,12.48 C63.1466667,12.48 64,12.6933333 64.64,13.0133333 C65.3866667,13.44 66.0266667,13.9733333 66.56,14.72 L66.56,12.8 L67.9466667,12.5866667 Z M62.5066667,13.6533333 C61.0133333,13.6533333 59.52,14.5066667 58.88,15.7866667 C58.1333333,17.1733333 58.1333333,18.7733333 58.88,20.16 C59.2,20.8 59.7333333,21.3333333 60.48,21.76 C61.12,22.1866667 61.8666667,22.2933333 62.6133333,22.2933333 C63.36,22.2933333 64.1066667,22.08 64.7466667,21.76 C65.3866667,21.44 65.92,20.9066667 66.3466667,20.16 C66.6666667,19.52 66.88,18.7733333 66.88,17.92 C66.88,16.7466667 66.4533333,15.68 65.6,14.8266667 C64.64,14.08 63.5733333,13.6533333 62.5066667,13.6533333 L62.5066667,13.6533333 Z M70.5066667,12.5866667 L71.8933333,12.5866667 L71.8933333,14.1866667 C72.2133333,13.6533333 72.7466667,13.2266667 73.1733333,12.8 C73.6,12.48 74.1333333,12.3733333 74.6666667,12.3733333 C75.0933333,12.3733333 75.52,12.48 75.9466667,12.6933333 L75.3066667,13.8666667 C75.0933333,13.76 74.7733333,13.6533333 74.56,13.6533333 C74.0266667,13.6533333 73.6,13.8666667 73.28,14.1866667 C72.7466667,14.72 72.4266667,15.2533333 72.32,15.8933333 C72.1066667,16.5333333 72.1066667,17.7066667 72.1066667,19.6266667 L72.1066667,23.2533333 L70.72,23.2533333 L70.5066667,12.5866667 Z M87.7866667,12.5866667 L87.7866667,23.36 L86.4,23.36 L86.4,21.5466667 C85.8666667,22.1866667 85.2266667,22.72 84.48,23.1466667 C82.3466667,24.1066667 79.8933333,23.68 78.1866667,22.08 C77.12,21.0133333 76.5866667,19.52 76.5866667,18.0266667 C76.5866667,16.5333333 77.12,15.1466667 78.1866667,14.08 C79.2533333,13.0133333 80.64,12.3733333 82.1333333,12.48 C82.9866667,12.48 83.84,12.6933333 84.48,13.0133333 C85.2266667,13.44 85.8666667,13.9733333 86.4,14.72 L86.4,12.8 L87.7866667,12.5866667 Z M82.3466667,13.6533333 C80.8533333,13.6533333 79.36,14.5066667 78.72,15.7866667 C77.9733333,17.1733333 77.9733333,18.7733333 78.72,20.16 C79.04,20.8 79.5733333,21.3333333 80.32,21.76 C80.96,22.1866667 81.7066667,22.2933333 82.4533333,22.2933333 C83.2,22.2933333 83.9466667,22.08 84.5866667,21.76 C85.2266667,21.44 85.76,20.9066667 86.1866667,20.16 C86.5066667,19.52 86.72,18.7733333 86.72,17.92 C86.72,16.7466667 86.2933333,15.68 85.5466667,14.8266667 C84.5866667,14.08 83.4133333,13.5466667 82.3466667,13.6533333 L82.3466667,13.6533333 Z M89.92,12.5866667 L91.4133333,12.5866667 L95.04,20.3733333 L98.56,12.5866667 L100.053333,12.5866667 L95.1466667,23.36 L94.9333333,23.36 L89.92,12.5866667 Z M111.146667,19.7333333 L112.32,20.3733333 C112,21.0133333 111.573333,21.6533333 111.04,22.1866667 C110.506667,22.6133333 109.973333,23.04 109.333333,23.2533333 C108.693333,23.4666667 107.946667,23.5733333 107.2,23.5733333 C105.493333,23.5733333 104.106667,23.04 103.146667,21.8666667 C102.186667,20.8 101.653333,19.4133333 101.653333,18.0266667 C101.653333,16.7466667 102.08,15.4666667 102.933333,14.4 C103.893333,13.12 105.493333,12.2666667 107.2,12.3733333 C108.906667,12.2666667 110.506667,13.12 111.573333,14.5066667 C112.32,15.4666667 112.746667,16.7466667 112.746667,18.24 L103.04,18.24 C103.04,19.4133333 103.466667,20.48 104.213333,21.3333333 C104.96,22.08 106.026667,22.5066667 107.093333,22.5066667 C107.626667,22.5066667 108.16,22.4 108.693333,22.1866667 C109.226667,21.9733333 109.653333,21.76 109.973333,21.44 C110.506667,20.8 110.826667,20.3733333 111.146667,19.7333333 L111.146667,19.7333333 Z M111.146667,16.8533333 C111.04,16.2133333 110.72,15.5733333 110.293333,15.04 C109.866667,14.6133333 109.44,14.1866667 108.906667,13.9733333 C108.373333,13.76 107.733333,13.5466667 107.093333,13.5466667 C106.133333,13.5466667 105.173333,13.8666667 104.426667,14.6133333 C103.893333,15.1466667 103.466667,15.8933333 103.146667,16.8533333 L111.146667,16.8533333 Z M115.093333,8.42666667 L116.48,8.42666667 L116.48,23.2533333 L115.093333,23.2533333 L115.093333,8.42666667 Z" id="Shape"></path>
            </g>
        </g>
    </g>
</svg>