<?xml version="1.0" encoding="UTF-8"?>
<svg width="158px" height="32px" viewBox="0 0 158 32" version="1.1" xmlns="http://www.w3.org/2000/svg" xmlns:xlink="http://www.w3.org/1999/xlink">
    <g stroke="none" stroke-width="1" fill="none" fill-rule="evenodd" >
        <g transform="translate(-454.000000, -665.000000)" fill="#D4D7D4" fill-rule="nonzero">
            <g transform="translate(454.000000, 665.000000)">
                <g transform="translate(0.086626, 0.000000)">
                    <g transform="translate(33.708986, 8.282960)">
                        <path d="M55.8186716,3.60496996 L49.4366895,3.60496996 L49.4366895,4.28266667 C51.4346097,4.28266667 51.7565494,4.70622711 51.7565494,7.22876484 L51.7565494,11.7655678 C51.7565494,14.278693 51.4346097,14.7399033 49.4366895,14.7399033 C47.9027412,14.5234168 46.8706403,13.7139458 45.440849,12.1514784 L43.8027438,10.381937 C46.008978,9.99602637 47.19258,8.6123956 47.19258,7.04992821 C47.19258,5.10155018 45.5165995,3.61438242 42.3824214,3.61438242 L36.1045962,3.61438242 L36.1045962,4.29207912 C38.1025164,4.29207912 38.4244562,4.71563956 38.4244562,7.23817729 L38.4244562,11.7749802 C38.4244562,14.2881055 38.1025164,14.7493158 36.1045962,14.7493158 L36.1045962,15.4270125 L43.2062084,15.4270125 L43.2062084,14.7493158 C41.2082882,14.7493158 40.8863484,14.2881055 40.8863484,11.7749802 L40.8863484,10.4948864 L41.4923526,10.4948864 L45.4503178,15.4176 L55.8281404,15.4176 C60.9318323,15.4176 63.1380665,12.7256381 63.1380665,9.4971663 C63.1285977,6.25928205 60.9128947,3.60496996 55.8186716,3.60496996 Z M40.8768796,9.38421685 L40.8768796,4.66857729 L42.3350773,4.66857729 C43.9353072,4.66857729 44.6549373,5.76983443 44.6549373,7.04051575 C44.6549373,8.28295971 43.944776,9.38421685 42.3350773,9.38421685 L40.8768796,9.38421685 L40.8768796,9.38421685 Z M55.9228286,14.3069304 L55.6766393,14.3069304 C54.3888803,14.3069304 54.2184416,13.986907 54.2184416,12.3585524 L54.2184416,4.66857729 C54.2184416,4.66857729 55.7902651,4.66857729 55.9322974,4.66857729 C59.6440733,4.66857729 60.3163593,7.36053919 60.3163593,9.45010403 C60.3068905,11.6149685 59.6346045,14.3069304 55.9228286,14.3069304 Z" id="Shape"></path>
                        <path d="M16.229551,10.692548 L18.6914432,3.46378315 C19.4016044,1.37421832 19.0796647,0.771821245 16.79768,0.771821245 L16.79768,0.0658871795 L23.5016018,0.0658871795 L23.5016018,0.771821245 C21.2574924,0.771821245 20.7177699,1.29891868 19.8277012,3.88734359 L15.765579,16.0105846 L15.301607,16.0105846 L11.6655816,4.9133011 L7.95380562,16.0105846 L7.48983363,16.0105846 L3.53186845,3.88734359 C2.67967499,1.29891868 2.1020772,0.771821245 0.0378752649,0.771821245 L0.0378752649,0.0658871795 L7.95380562,0.0658871795 L7.95380562,0.771821245 C5.85172842,0.771821245 5.27413063,1.27068132 6.03163593,3.46378315 L8.41777761,10.692548 L12.0159278,0.0564747253 L12.6976825,0.0564747253 L16.229551,10.692548 Z" id="Path"></path>
                        <path d="M28.3591046,15.8693978 C24.4390146,15.8693978 21.229086,12.9985993 21.229086,9.48775385 C21.229086,6.01455824 24.4390146,3.14375971 28.3591046,3.14375971 C32.2791945,3.14375971 35.4891232,6.01455824 35.4891232,9.48775385 C35.4891232,12.9985993 32.2791945,15.8693978 28.3591046,15.8693978 Z M28.3591046,4.24501685 C25.0828942,4.24501685 23.9371674,7.19111502 23.9371674,9.48775385 C23.9371674,11.8314549 25.0828942,14.7304908 28.3591046,14.7304908 C31.6731902,14.7304908 32.818917,11.8220425 32.818917,9.48775385 C32.818917,7.18170256 31.6731902,4.24501685 28.3591046,4.24501685 Z" id="Shape"></path>
                        <path d="M71.9345968,14.7022535 L71.9345968,15.4081875 L63.7724772,15.4081875 L63.7724772,14.7022535 C66.1586189,14.7022535 66.5941844,14.0998564 66.5941844,10.5513612 L66.5941844,4.87565128 C66.5941844,1.32715604 66.1680877,0.762408791 63.7724772,0.762408791 L63.7724772,0.0564747253 L71.1581538,0.0564747253 C74.8320545,0.0564747253 76.86785,1.93896557 76.86785,4.45209084 C76.86785,6.89932894 74.8320545,8.81005714 71.1581538,8.81005714 L69.1223584,8.81005714 L69.1223584,10.5513612 C69.1223584,14.0998564 69.5484551,14.7022535 71.9345968,14.7022535 Z M71.148685,1.3365685 L69.1223584,1.3365685 L69.1223584,7.50172601 L71.1581538,7.50172601 C73.1560741,7.50172601 74.0840181,6.11809524 74.0840181,4.45209084 C74.0745492,2.75784908 73.1466053,1.3365685 71.148685,1.3365685 Z" id="Shape"></path>
                        <path d="M101.354209,12.0761788 L101.174301,12.7162256 C100.852361,13.88337 100.46414,14.3069304 97.9264973,14.3069304 L97.42465,14.3069304 C95.568762,14.3069304 95.2468223,13.88337 95.2468223,11.3608322 L95.2468223,9.73247766 C98.0306543,9.73247766 98.2389682,9.97720147 98.2389682,11.8220425 L98.920723,11.8220425 L98.920723,6.54165568 L98.2389682,6.54165568 C98.2389682,8.3864967 98.0211854,8.63122051 95.2468223,8.63122051 L95.2468223,4.65916484 L97.2068673,4.65916484 C99.7350412,4.65916484 100.132731,5.08272527 100.454671,6.2498696 L100.634579,6.9275663 L101.202708,6.9275663 L100.956518,3.59555751 L90.4745389,3.59555751 L90.4745389,4.27325421 C92.4724591,4.27325421 92.7943989,4.69681465 92.7943989,7.21935238 L92.7943989,11.7561553 C92.7943989,14.0622066 92.5198032,14.6363663 90.9479797,14.7210784 C89.4519068,14.4951795 88.4198058,13.6857084 87.018421,12.1420659 L85.3803158,10.3725245 C87.5960188,9.98661392 88.770152,8.60298315 88.770152,7.04051575 C88.770152,5.09213773 87.0941715,3.60496996 83.9599934,3.60496996 L77.6821682,3.60496996 L77.6821682,4.28266667 C79.6800884,4.28266667 80.0020282,4.70622711 80.0020282,7.22876484 L80.0020282,11.7655678 C80.0020282,14.278693 79.6800884,14.7399033 77.6821682,14.7399033 L77.6821682,15.4176 L84.7837804,15.4176 L84.7837804,14.7399033 C82.7858602,14.7399033 82.4639204,14.278693 82.4639204,11.7655678 L82.4639204,10.485474 L83.0699246,10.485474 L87.0278898,15.4081875 L101.685617,15.4081875 L101.9034,12.0761788 L101.354209,12.0761788 L101.354209,12.0761788 Z M82.4544516,9.38421685 L82.4544516,4.66857729 L83.9126493,4.66857729 C85.5128792,4.66857729 86.2325093,5.76983443 86.2325093,7.04051575 C86.2325093,8.28295971 85.522348,9.38421685 83.9126493,9.38421685 L82.4544516,9.38421685 L82.4544516,9.38421685 Z" id="Shape"></path>
                        <path d="M108.597853,15.8693978 C107.168062,15.8693978 105.918178,15.1258139 105.387924,14.6646037 C105.208017,14.8434403 104.886077,15.3705377 104.819795,15.8693978 L104.138041,15.8693978 L104.138041,10.9749216 L104.848202,10.9749216 C105.132266,13.3186227 106.770372,14.692841 108.881918,14.692841 C110.027644,14.692841 110.94612,14.0527941 110.94612,12.9891868 C110.94612,12.0667663 110.122333,11.3608322 108.664135,10.6831355 L106.628339,9.7230652 C105.198548,9.0453685 104.128572,7.87822418 104.128572,6.31575678 C104.128572,4.61210256 105.728802,3.16258462 107.944505,3.16258462 C109.118638,3.16258462 110.122333,3.58614505 110.728337,4.08500513 C110.908244,3.94381832 111.088152,3.54849524 111.192309,3.1249348 L111.874064,3.1249348 L111.874064,7.30406447 L111.126027,7.30406447 C110.879838,5.63806007 109.951894,4.2544293 108.058131,4.2544293 C107.063905,4.2544293 106.135961,4.81917656 106.135961,5.70394725 C106.135961,6.62636777 106.883997,7.12522784 108.597853,7.89704908 L110.557898,8.85711941 C112.271754,9.67600293 112.94404,10.9843341 112.94404,12.0479414 C112.94404,14.3069304 110.983995,15.8693978 108.597853,15.8693978 Z" id="Path"></path>
                        <path d="M119.382835,15.8693978 C117.953044,15.8693978 116.70316,15.1258139 116.172906,14.6646037 C115.992999,14.8434403 115.671059,15.3705377 115.604777,15.8693978 L114.923022,15.8693978 L114.923022,10.9749216 L115.633184,10.9749216 C115.917248,13.3186227 117.555353,14.692841 119.666899,14.692841 C120.812626,14.692841 121.731101,14.0527941 121.731101,12.9891868 C121.731101,12.0667663 120.907314,11.3608322 119.449117,10.6831355 L117.413321,9.7230652 C115.98353,9.0453685 114.913554,7.87822418 114.913554,6.31575678 C114.913554,4.61210256 116.513784,3.16258462 118.729487,3.16258462 C119.90362,3.16258462 120.907314,3.58614505 121.513318,4.08500513 C121.693226,3.94381832 121.873133,3.54849524 121.97729,3.1249348 L122.659045,3.1249348 L122.659045,7.30406447 L121.911009,7.30406447 C121.66482,5.63806007 120.736876,4.2544293 118.843112,4.2544293 C117.848887,4.2544293 116.920943,4.81917656 116.920943,5.70394725 C116.920943,6.62636777 117.668979,7.12522784 119.382835,7.89704908 L121.34288,8.85711941 C123.056736,9.67600293 123.729021,10.9843341 123.729021,12.0479414 C123.729021,14.3069304 121.768977,15.8693978 119.382835,15.8693978 Z" id="Path"></path>
                    </g>
                    <g>
                        <path d="M16.0969876,1.0071326 C18.132783,1.0071326 20.1117656,1.40245568 21.9676536,2.18368938 C22.8577223,2.56018755 23.7193846,3.0213978 24.5337028,3.56732015 C25.3290834,4.10383004 26.0865887,4.71563956 26.7683434,5.40274872 C27.4500982,6.08044542 28.0750401,6.8240293 28.6147626,7.62408791 C29.1639539,8.42414652 29.6279259,9.28067985 30.0066786,10.174863 C30.7925903,12.019704 31.1902806,13.986907 31.1902806,16.0105846 C31.1902806,18.0342623 30.7925903,20.0014652 30.0066786,21.8463062 C29.6279259,22.7310769 29.1639539,23.5876103 28.6147626,24.3970813 C28.0750401,25.1877275 27.459567,25.9407238 26.7683434,26.6184205 C26.0865887,27.2961172 25.3385522,27.9173392 24.5337028,28.4538491 C23.7288534,28.9997714 22.8671912,29.4609817 21.9676536,29.8374799 C20.1117656,30.6187136 18.132783,31.0140366 16.0969876,31.0140366 C14.0611921,31.0140366 12.0822095,30.6187136 10.2263215,29.8374799 C9.33625279,29.4609817 8.47459051,28.9997714 7.66027232,28.4538491 C6.86489175,27.9173392 6.10738646,27.3055297 5.42563169,26.6184205 C4.74387692,25.9407238 4.11893505,25.1971399 3.57921253,24.3970813 C3.03002119,23.5970227 2.56604919,22.7404894 2.18729655,21.8463062 C1.4013848,20.0014652 1.00369452,18.0342623 1.00369452,16.0105846 C1.00369452,13.986907 1.4013848,12.019704 2.18729655,10.174863 C2.56604919,9.29009231 3.03002119,8.43355897 3.57921253,7.62408791 C4.11893505,6.83344176 4.73440811,6.08044542 5.42563169,5.40274872 C6.10738646,4.72505201 6.85542294,4.10383004 7.66027232,3.56732015 C8.4651217,3.0213978 9.32678397,2.56018755 10.2263215,2.18368938 C12.0822095,1.40245568 14.0611921,1.0071326 16.0969876,1.0071326 M16.0969876,0.0470622711 C7.23417559,0.0470622711 0.0473440811,7.19111502 0.0473440811,16.0011722 C0.0473440811,24.8112293 7.23417559,31.9552821 16.0969876,31.9552821 C24.9597995,31.9552821 32.146631,24.8112293 32.146631,16.0011722 C32.146631,7.19111502 24.9597995,0.0470622711 16.0969876,0.0470622711 L16.0969876,0.0470622711 Z" id="Shape"></path>
                        <path d="M2.71755025,16.0011722 C2.71755025,21.2627341 5.79491552,25.8089495 10.254728,27.9644015 L3.88221465,10.589011 C3.13417817,12.2456029 2.71755025,14.071619 2.71755025,16.0011722 Z M25.1207694,15.3328879 C25.1207694,13.6857084 24.524234,12.5562139 24.0223867,11.6620308 C23.340632,10.5701861 22.7062213,9.63835311 22.7062213,8.54650842 C22.7062213,7.32288938 23.6341653,6.18398242 24.9503307,6.18398242 C25.0071436,6.18398242 25.0639565,6.19339487 25.1207694,6.19339487 C22.7440965,4.0285304 19.5720431,2.70137436 16.0875187,2.70137436 C11.4193924,2.70137436 7.3004573,5.08272527 4.91431561,8.69710769 C5.22678655,8.70652015 5.52031985,8.7159326 5.77597789,8.7159326 C7.17736269,8.7159326 9.33625279,8.54650842 9.33625279,8.54650842 C10.0558828,8.50885861 10.1411022,9.55364103 9.42147213,9.63835311 C9.42147213,9.63835311 8.69237328,9.7230652 7.88752391,9.76071502 L12.7544954,24.16177 L15.6803596,15.4364249 L13.5972201,9.76071502 C12.8775901,9.7230652 12.1958353,9.63835311 12.1958353,9.63835311 C11.4762053,9.6007033 11.5614246,8.49944615 12.2810546,8.54650842 C12.2810546,8.54650842 14.4872888,8.7159326 15.8034543,8.7159326 C17.2048391,8.7159326 19.3637292,8.54650842 19.3637292,8.54650842 C20.0833592,8.50885861 20.1685785,9.55364103 19.4489485,9.63835311 C19.4489485,9.63835311 18.7198497,9.7230652 17.9150003,9.76071502 L22.7440965,24.0488205 L24.1265437,19.7002667 C24.7609544,17.8083634 25.1207694,16.4623824 25.1207694,15.3328879 Z M16.333708,17.158904 L12.3189299,28.7456352 C13.5214696,29.093896 14.7808221,29.2915575 16.0969876,29.2915575 C17.6498734,29.2915575 19.1459464,29.0280088 20.5378624,28.5385612 C20.4999871,28.4820864 20.4715807,28.4256117 20.4431742,28.3597245 L16.333708,17.158904 Z M27.8288509,9.61952821 C27.8856637,10.0430886 27.9140702,10.4948864 27.9140702,10.9843341 C27.9140702,12.330315 27.6584122,13.8457201 26.9009069,15.7470359 L22.8198471,27.4937788 C26.7967499,25.1877275 29.4669561,20.9050608 29.4669561,16.0011722 C29.4669561,13.6857084 28.8798895,11.5114315 27.8288509,9.61952821 Z" id="Shape"></path>
                    </g>
                </g>
            </g>
        </g>
    </g>
</svg>